<svg xmlns="http://www.w3.org/2000/svg" width="32.754" height="32.754" viewBox="0 0 32.754 32.754"><defs><style>.a{fill:#444;}</style></defs><path class="a" d="M16.377,0A16.377,16.377,0,1,0,32.754,16.377,16.4,16.4,0,0,0,16.377,0Zm0,30.6A14.222,14.222,0,1,1,30.6,16.377,14.238,14.238,0,0,1,16.377,30.6Z"/><path class="a" d="M78.547,38.851V32.732a3.1,3.1,0,0,1,1.512,1.2,1.078,1.078,0,1,0,1.8-1.185A5.246,5.246,0,0,0,78.547,30.5V28.784a1.078,1.078,0,1,0-2.155,0v1.709a5.257,5.257,0,0,0,0,10.292V46.9a3.1,3.1,0,0,1-1.512-1.2,1.078,1.078,0,1,0-1.8,1.185,5.246,5.246,0,0,0,3.312,2.255v1.712a1.078,1.078,0,1,0,2.155,0V49.143a5.257,5.257,0,0,0,0-10.292Zm-4.183-3.212a3.1,3.1,0,0,1,2.027-2.906v5.811A3.1,3.1,0,0,1,74.364,35.638ZM78.547,46.9V41.091a3.1,3.1,0,0,1,0,5.811Z" transform="translate(-61.092 -23.441)"/></svg>