<svg xmlns="http://www.w3.org/2000/svg" width="44" height="44" viewBox="0 0 44 44"><defs><style>.a{fill:#3e8051;}.b{fill:#32b1cc;}.c{fill:#2d75bb;}.d{fill:#195c85;}.e{fill:#e97424;}.f{fill:#55b56a;}.g{fill:#f9bb4b;}.h{fill:#f4f4e6;}</style></defs><g transform="translate(-3 -3)"><path class="a" d="M9,3H40.862V19.69H9Z" transform="translate(-1.448)"/><path class="b" d="M16,57H40.276v3.034H16Z" transform="translate(-3.138 -13.034)"/><g transform="translate(14.379 33.345)"><path class="c" d="M18,43h3.034V53.621H18Z" transform="translate(-18 -43)"/><path class="c" d="M26,43h3.034V53.621H26Z" transform="translate(-19.931 -43)"/><path class="c" d="M34,43h3.034V53.621H34Z" transform="translate(-21.862 -43)"/><path class="c" d="M42,43h3.034V53.621H42Z" transform="translate(-23.793 -43)"/></g><path class="b" d="M16,39H40.276v3.034H16Z" transform="translate(-3.138 -8.69)"/><path class="d" d="M40.276,37.069H16L28.138,31Z" transform="translate(-3.138 -6.759)"/><path class="e" d="M8.31,43.655V33.793h2.276L6.793,30,3,33.793H5.276v12.9h6.069V43.655Z" transform="translate(0 -6.517)"/><path class="e" d="M53.034,43.655V33.793H50.759L54.552,30l3.793,3.793H56.069v12.9H50V43.655Z" transform="translate(-11.345 -6.517)"/><path class="f" d="M13,7H43.345V22.172H13Z" transform="translate(-2.414 -0.966)"/><path class="g" d="M39,11H19.276A2.276,2.276,0,0,1,17,13.276v4.552A2.276,2.276,0,0,1,19.276,20.1H39a2.276,2.276,0,0,1,2.276-2.276V13.276A2.276,2.276,0,0,1,39,11Z" transform="translate(-3.379 -1.931)"/><ellipse class="h" cx="2" cy="1.5" rx="2" ry="1.5" transform="translate(16 12)"/><circle class="h" cx="1.5" cy="1.5" r="1.5" transform="translate(32 12)"/><ellipse class="h" cx="3" cy="2.5" rx="3" ry="2.5" transform="translate(23 11)"/></g></svg>