<svg xmlns="http://www.w3.org/2000/svg" xmlns:xlink="http://www.w3.org/1999/xlink" width="32" height="32" viewBox="0 0 32 32"><defs><style>.a,.b,.d{fill:#e65653;}.a,.b{stroke:#707070;}.b{opacity:0;}.c{clip-path:url(#a);}.e{stroke:none;}.f{fill:none;}</style><clipPath id="a"><rect class="a" width="30" height="30" transform="translate(0)"/></clipPath></defs><g transform="translate(-326.406 -5923.406)"><g class="b" transform="translate(326.406 5923.406)"><rect class="e" width="32" height="32"/><rect class="f" x="0.5" y="0.5" width="31" height="31"/></g><g class="c" transform="translate(327.406 5924.406)"><g transform="translate(0.577 0.547)"><path class="d" d="M28.111,21.215l-4.034-4.034a2.683,2.683,0,0,0-4.466,1.009,2.745,2.745,0,0,1-3.17,1.729c-2.881-.72-6.771-4.466-7.492-7.492a2.611,2.611,0,0,1,1.729-3.17A2.683,2.683,0,0,0,11.686,4.79L7.652.756a2.877,2.877,0,0,0-3.89,0L1.025,3.494c-2.737,2.881.288,10.517,7.06,17.289s14.407,9.941,17.289,7.06L28.111,25.1A2.877,2.877,0,0,0,28.111,21.215Z" transform="translate(-0.021 0)"/></g></g></g></svg>