<svg xmlns="http://www.w3.org/2000/svg" width="95" height="77.514" viewBox="0 0 95 77.514"><defs><style>.a{fill:#3e8051;}.b{fill:#32b1cc;}.c{fill:#2d75bb;}.d{fill:#195c85;}.e{fill:#e97424;}.f{fill:#55b56a;}.g{fill:#f9bb4b;}.h{fill:#f4f4e6;}.i{fill:#555;font-size:14px;font-family:Poppins-Regular, Poppins;}</style></defs><g transform="translate(20)"><path class="a" d="M9,3H49.552V24.241H9Z" transform="translate(-3.207 -3)"/><path class="b" d="M16,57H46.9v3.862H16Z" transform="translate(-3.448 -4.862)"/><g transform="translate(14.483 38.621)"><path class="c" d="M18,43h3.862V56.517H18Z" transform="translate(-18 -43)"/><path class="c" d="M26,43h3.862V56.517H26Z" transform="translate(-18.276 -43)"/><path class="c" d="M34,43h3.862V56.517H34Z" transform="translate(-18.552 -43)"/><path class="c" d="M42,43h3.862V56.517H42Z" transform="translate(-18.828 -43)"/></g><path class="b" d="M16,39H46.9v3.862H16Z" transform="translate(-3.448 -4.241)"/><path class="d" d="M46.9,38.724H16L31.448,31Z" transform="translate(-3.448 -3.966)"/><path class="e" d="M9.759,47.379V34.828h2.9L7.828,30,3,34.828H5.9V51.241h7.724V47.379Z" transform="translate(-3 -3.931)"/><path class="e" d="M53.862,47.379V34.828h-2.9L55.793,30l4.828,4.828h-2.9V51.241H50V47.379Z" transform="translate(-4.621 -3.931)"/><path class="f" d="M13,7H51.621V26.31H13Z" transform="translate(-3.345 -3.138)"/><path class="g" d="M45,11H19.9A2.9,2.9,0,0,1,17,13.9V19.69a2.9,2.9,0,0,1,2.9,2.9H45a2.9,2.9,0,0,1,2.9-2.9V13.9A2.9,2.9,0,0,1,45,11Z" transform="translate(-3.483 -3.276)"/><ellipse class="h" cx="2" cy="1.5" rx="2" ry="1.5" transform="translate(17 12.514)"/><ellipse class="h" cx="2" cy="1.5" rx="2" ry="1.5" transform="translate(37 12.514)"/><ellipse class="h" cx="4" cy="3.5" rx="4" ry="3.5" transform="translate(25 10.514)"/></g><text class="i" transform="translate(0 72.514)"><tspan x="0" y="0">Bank Transfer</tspan></text></svg>