<svg xmlns="http://www.w3.org/2000/svg" xmlns:xlink="http://www.w3.org/1999/xlink" width="32" height="32" viewBox="0 0 32 32"><defs><style>.a,.f{fill:#e52f2a;}.a,.b,.c,.f{stroke:#707070;}.b,.c,.i{fill:#e65653;}.b,.f{opacity:0;}.d{fill:#fde5e3;}.e{opacity:0.89;}.g{clip-path:url(#a);}.h{clip-path:url(#b);}.j{clip-path:url(#c);}.k{stroke:none;}.l{fill:none;}</style><clipPath id="a"><rect class="a" width="20" height="20" transform="translate(0 0)"/></clipPath><clipPath id="b"><rect class="b" width="20" height="20" transform="translate(325.238 5922.238)"/></clipPath><clipPath id="c"><rect class="c" width="16" height="16" transform="translate(-0.056 -0.056)"/></clipPath></defs><g transform="translate(20350 -17922)"><rect class="d" width="32" height="32" rx="4" transform="translate(-20350 17922)"/><g class="e" transform="translate(-20671.703 12003.297)"><g class="f" transform="translate(325.704 5922.704)"><rect class="k" width="24" height="24"/><rect class="l" x="0.5" y="0.5" width="23" height="23"/></g></g><g transform="translate(-20669.236 12005.764)"><g class="h"><g transform="translate(325.238 5922.238)"><path class="i" d="M11.549,20V10.878H14.61l.459-3.556h-3.52V5.051c0-1.029.285-1.731,1.762-1.731h1.882V.139A25.512,25.512,0,0,0,12.45,0C9.736,0,7.877,1.657,7.877,4.7V7.322H4.807v3.556h3.07V20Z"/></g></g></g></g></svg>