<svg xmlns="http://www.w3.org/2000/svg" xmlns:xlink="http://www.w3.org/1999/xlink" width="32" height="32" viewBox="0 0 32 32"><defs><style>.a,.b,.d{fill:#e65653;}.a,.b{stroke:#707070;}.b{opacity:0;}.c{clip-path:url(#a);}.e{stroke:none;}.f{fill:none;}</style><clipPath id="a"><rect class="a" width="28" height="28"/></clipPath></defs><g transform="translate(-326 -5923)"><g class="b" transform="translate(326 5923)"><rect class="e" width="32" height="32"/><rect class="f" x="0.5" y="0.5" width="31" height="31"/></g><g class="c" transform="translate(328 5925)"><g transform="translate(-0.583 3.974)"><g transform="translate(0 0)"><path class="d" d="M27.344,3.125H1.823A1.824,1.824,0,0,0,0,4.948V5.985l14.583,6.176L29.167,5.983V4.948A1.824,1.824,0,0,0,27.344,3.125Z" transform="translate(0 -3.125)"/></g><g transform="translate(0 4.84)"><path class="d" d="M14.939,12.468a.9.9,0,0,1-.711,0L0,6.444V19.833a1.824,1.824,0,0,0,1.823,1.823H27.344a1.824,1.824,0,0,0,1.823-1.823V6.444Z" transform="translate(0 -6.444)"/></g></g></g></g></svg>