<svg xmlns="http://www.w3.org/2000/svg" xmlns:xlink="http://www.w3.org/1999/xlink" width="32" height="32" viewBox="0 0 32 32"><defs><style>.a,.f{fill:#e52f2a;}.a,.b,.c,.f{stroke:#707070;}.b,.c,.i{fill:#e65653;}.b,.f{opacity:0;}.d{fill:#fde5e3;}.e{opacity:0.89;}.g{clip-path:url(#a);}.h{clip-path:url(#b);}.j{clip-path:url(#c);}.k{stroke:none;}.l{fill:none;}</style><clipPath id="a"><rect class="a" width="20" height="20" transform="translate(0 0)"/></clipPath><clipPath id="b"><rect class="b" width="20" height="20" transform="translate(325.238 5922.238)"/></clipPath><clipPath id="c"><rect class="c" width="16" height="16" transform="translate(-0.056 -0.056)"/></clipPath></defs><g transform="translate(20350 -17922)"><rect class="d" width="32" height="32" rx="4" transform="translate(-20350 17922)"/><g class="e" transform="translate(-20671.703 12003.297)"><g class="f" transform="translate(325.704 5922.704)"><rect class="k" width="24" height="24"/><rect class="l" x="0.5" y="0.5" width="23" height="23"/></g></g><g transform="translate(-20669.236 12005.764)"><g class="h"><g transform="translate(325.238 5922.238)"><path class="i" d="M20,3.8a8.549,8.549,0,0,1-2.363.648,4.077,4.077,0,0,0,1.8-2.266,8.194,8.194,0,0,1-2.6.992,4.1,4.1,0,0,0-7.092,2.8,4.222,4.222,0,0,0,.1.935A11.606,11.606,0,0,1,1.392,2.623,4.1,4.1,0,0,0,2.652,8.1,4.049,4.049,0,0,1,.8,7.6v.045a4.119,4.119,0,0,0,3.285,4.029,4.092,4.092,0,0,1-1.075.135,3.625,3.625,0,0,1-.776-.07,4.139,4.139,0,0,0,3.831,2.856A8.239,8.239,0,0,1,.981,16.341,7.68,7.68,0,0,1,0,16.285a11.543,11.543,0,0,0,6.29,1.84A11.59,11.59,0,0,0,17.96,6.458c0-.181-.006-.356-.015-.53A8.18,8.18,0,0,0,20,3.8Z"/></g></g></g></g></svg>