<svg xmlns="http://www.w3.org/2000/svg" xmlns:xlink="http://www.w3.org/1999/xlink" width="72" height="72" viewBox="0 0 72 72"><defs><style>.a,.i{fill:#fff;}.a{stroke:#707070;}.b{clip-path:url(#a);}.c{fill:#ffd29e;}.d{clip-path:url(#b);}.e{fill:#eceae7;}.f{fill:#00b4bc;}.g{fill:#ff7d47;}.h{fill:#e20059;}</style><clipPath id="a"><rect class="a" width="72" height="72"/></clipPath><clipPath id="b"><rect class="a" width="42" height="42"/></clipPath></defs><g transform="translate(-17255.5 -1393.391)"><g class="b" transform="translate(17255.5 1393.391)"><path class="c" d="M36,0A36,36,0,1,1,0,36,36,36,0,0,1,36,0Z"/></g><g class="d" transform="translate(17270.5 1408.391)"><g transform="translate(-0.249 -0.229)"><path class="e" d="M41.062,20.813V45.089H7.955V20.872L24.509,7.8Z" transform="translate(-3.26 -3.217)"/><path class="e" d="M36.066,45.058H52.58V20.783L36.066,7.8Z" transform="translate(-14.778 -3.217)"/><g transform="translate(0 39.971)"><path class="f" d="M41.254,70.24H1.244a1.244,1.244,0,1,1,0-2.488h40.01a1.244,1.244,0,0,1,0,2.488Z" transform="translate(0 -67.752)"/></g><path class="g" d="M23.139.045,19.387.033a1.467,1.467,0,0,0-.925.325L.392,14.924a.94.94,0,0,0-.35.73L.033,20.964a.943.943,0,0,0,1.527.74L20.682,6.647a.945.945,0,0,1,1.167,0L40.966,21.64a.943.943,0,0,0,1.526-.739V15.585a.939.939,0,0,0-.353-.733L24.051.367a1.467,1.467,0,0,0-.912-.322Z" transform="translate(-0.013 -0.033)"/><path class="h" d="M31.205,26.247a1.143,1.143,0,0,0-1.6-.018c-1.9,1.814-6.556,6.615-7.149,10.712-.747,5.168,3.66,8.9,7.956,8.9s8.745-3.622,8.046-8.9c-.481-3.633-5.328-8.773-7.259-10.694Z" transform="translate(-9.17 -10.637)"/><path class="g" d="M56.9,14.845,38.816.36A1.467,1.467,0,0,0,37.9.039L36.066.033V6.439a.942.942,0,0,1,.548.2L55.731,21.634a.943.943,0,0,0,1.526-.739V15.578a.94.94,0,0,0-.353-.733Z" transform="translate(-14.778 -0.033)"/><path class="f" d="M56.032,67.752H36.066V70.24H56.032a1.244,1.244,0,0,0,0-2.488Z" transform="translate(-14.778 -27.781)"/><path class="h" d="M36.814,26.244a1.14,1.14,0,0,0-.748-.331V45.841a7.975,7.975,0,0,0,8.006-8.9c-.481-3.633-5.328-8.773-7.259-10.694Z" transform="translate(-14.778 -10.637)"/><path class="i" d="M35.982,42.567H34.676V41.261a1.244,1.244,0,0,0-2.488,0v1.306H30.882a1.244,1.244,0,1,0,0,2.488h1.306v1.306a1.244,1.244,0,0,0,2.488,0V45.055h1.306a1.244,1.244,0,0,0,0-2.488Z" transform="translate(-12.144 -16.416)"/><path class="e" d="M37.31,46.362V45.055h1.306a1.244,1.244,0,0,0,0-2.488H37.31V41.261a1.244,1.244,0,0,0-1.244-1.244v7.589A1.244,1.244,0,0,0,37.31,46.362Z" transform="translate(-14.778 -16.416)"/></g></g></g></svg>