<svg xmlns="http://www.w3.org/2000/svg" xmlns:xlink="http://www.w3.org/1999/xlink" width="32" height="32" viewBox="0 0 32 32"><defs><style>.a,.f{fill:#e52f2a;}.a,.b,.c,.f{stroke:#707070;}.b,.c,.i{fill:#e65653;}.b,.f{opacity:0;}.d{fill:#fde5e3;}.e{opacity:0.89;}.g{clip-path:url(#a);}.h{clip-path:url(#b);}.j{clip-path:url(#c);}.k{stroke:none;}.l{fill:none;}</style><clipPath id="a"><rect class="a" width="20" height="20" transform="translate(0 0)"/></clipPath><clipPath id="b"><rect class="b" width="20" height="20" transform="translate(325.238 5922.238)"/></clipPath><clipPath id="c"><rect class="c" width="16" height="16" transform="translate(-0.056 -0.056)"/></clipPath></defs><g transform="translate(20350 -17922)"><rect class="d" width="32" height="32" rx="4" transform="translate(-20350 17922)"/><g class="e" transform="translate(-20671.703 12003.297)"><g class="f" transform="translate(325.704 5922.704)"><rect class="k" width="24" height="24"/><rect class="l" x="0.5" y="0.5" width="23" height="23"/></g></g><g transform="translate(-20669.236 12005.764)"><g class="h"><path class="i" d="M19.588,2A2.506,2.506,0,0,0,17.825.238C16.26-.19,10-.19,10-.19s-6.26,0-7.825.412A2.556,2.556,0,0,0,.412,2,26.4,26.4,0,0,0,0,6.812a26.3,26.3,0,0,0,.412,4.81,2.506,2.506,0,0,0,1.763,1.763c1.581.428,7.825.428,7.825.428s6.26,0,7.825-.412a2.506,2.506,0,0,0,1.763-1.763A26.41,26.41,0,0,0,20,6.828,25.062,25.062,0,0,0,19.588,2ZM8.007,9.81v-6l5.206,3Zm0,0" transform="translate(325.238 5925.426)"/></g></g></g></svg>