<svg xmlns="http://www.w3.org/2000/svg" xmlns:xlink="http://www.w3.org/1999/xlink" width="32" height="32" viewBox="0 0 32 32"><defs><style>.a,.b,.d{fill:#e65653;}.a,.b{stroke:#707070;}.b{opacity:0;}.c{clip-path:url(#a);}.e{stroke:none;}.f{fill:none;}</style><clipPath id="a"><rect class="a" width="26" height="26" transform="translate(0 0)"/></clipPath></defs><g transform="translate(-325.704 -5922.704)"><g class="b" transform="translate(325.704 5922.704)"><rect class="e" width="32" height="32"/><rect class="f" x="0.5" y="0.5" width="31" height="31"/></g><g class="c" transform="translate(328.704 5925.704)"><path class="d" d="M8.965,0A9.171,9.171,0,0,0-.2,9.16c0,6.348,9.169,17.193,9.169,17.193S18.125,15.2,18.125,9.16A9.171,9.171,0,0,0,8.965,0Zm2.764,11.842a3.909,3.909,0,1,1,0-5.527A3.9,3.9,0,0,1,11.729,11.842Zm0,0" transform="translate(4.034 -0.177)"/></g></g></svg>