<svg xmlns="http://www.w3.org/2000/svg" xmlns:xlink="http://www.w3.org/1999/xlink" width="72" height="72" viewBox="0 0 72 72"><defs><style>.a{fill:#fff;stroke:#707070;}.b{clip-path:url(#a);}.c{fill:#ffb272;}.d{fill:#a33b1a;}.e{fill:#ff8b2a;}.f{fill:url(#b);}.g{fill:url(#c);}.h{fill:#ff522e;}</style><clipPath id="a"><rect class="a" width="72" height="72"/></clipPath><linearGradient id="b" x1="0.166" y1="0.337" x2="0.834" y2="1.061" gradientUnits="objectBoundingBox"><stop offset="0" stop-color="#ffd567"/><stop offset="1" stop-color="#ffa725"/></linearGradient><linearGradient id="c" x1="0.113" y1="0.294" x2="0.887" y2="0.902" gradientUnits="objectBoundingBox"><stop offset="0" stop-color="#a33b1a"/><stop offset="1" stop-color="#462300"/></linearGradient></defs><g class="b"><path class="c" d="M72,36A36,36,0,1,1,36,0,36,36,0,0,1,72,36Zm0,0"/><path class="d" d="M57.921,43.122,44.245,19.392a9.513,9.513,0,0,0-16.489,0L14.079,43.122a9.512,9.512,0,0,0,8.245,14.253H49.676a9.512,9.512,0,0,0,8.245-14.253Zm0,0" transform="translate(0 0)"/><path class="e" d="M53.212,45.835,39.536,22.106a4.078,4.078,0,0,0-7.072,0L18.788,45.836a4.012,4.012,0,0,0-.54,2.029,4.08,4.08,0,0,0,4.076,4.075H49.676a4.08,4.08,0,0,0,4.076-4.075,4.013,4.013,0,0,0-.54-2.03Zm0,0" transform="translate(0)"/><path class="f" d="M36,45.062l12.346-2.227L37.182,23.462a1.361,1.361,0,0,0-2.364,0L23.653,42.835l9.7,2.135-.069.582,1.493-.269L36,45.552Zm0,0" transform="translate(0 0)"/><path class="g" d="M41.724,36.6,36,31.014,30.276,36.6v6.279l4.013,1.905-.1.812,1.029-.371.782.371v-.653l5.724-2.064Zm0,0" transform="translate(0)"/><path class="h" d="M50.858,47.192l-2.512-4.358a7.212,7.212,0,0,1-3.615-1.424,7.244,7.244,0,0,1-8.731,0,7.244,7.244,0,0,1-8.731,0,7.212,7.212,0,0,1-3.616,1.424l-2.511,4.358a1.3,1.3,0,0,0-.176.672,1.36,1.36,0,0,0,1.358,1.359H49.676a1.36,1.36,0,0,0,1.358-1.359,1.3,1.3,0,0,0-.176-.672Zm0,0" transform="translate(0 0)"/></g></svg>