<svg xmlns="http://www.w3.org/2000/svg" xmlns:xlink="http://www.w3.org/1999/xlink" width="72" height="72" viewBox="0 0 72 72"><defs><style>.a{fill:#fff;stroke:#707070;}.b{clip-path:url(#c);}.c{fill:#2cbfae;}.d{fill:#ef5261;}.e,.k{fill:#eeefee;}.f{fill:#dbd8dd;}.g{fill:#69b0ee;}.h{fill:#f6c863;}.i{fill:#da364c;}.j{fill:#575b6d;}.k{opacity:0.5;}.l{filter:url(#a);}</style><filter id="a" x="-9" y="0" width="90" height="126" filterUnits="userSpaceOnUse"><feOffset dy="45" input="SourceAlpha"/><feGaussianBlur stdDeviation="3" result="b"/><feFlood flood-color="#ff1919"/><feComposite operator="in" in2="b"/><feComposite in="SourceGraphic"/></filter><clipPath id="c"><g class="l" transform="matrix(1, 0, 0, 1, 0, 0)"><rect class="a" width="72" height="72"/></g></clipPath></defs><g class="b"><circle class="c" cx="36" cy="36" r="36"/><g transform="translate(12.938 23.722)"><path class="d" d="M43.65,23.722a1.483,1.483,0,0,1,1.483,1.483V26.9H42.167V25.2A1.483,1.483,0,0,1,43.65,23.722Z" transform="translate(-12.937 -23.722)"/><path class="e" d="M13.652,25.227H38.993a.715.715,0,0,1,.715.715v17.8H13.3a.358.358,0,0,1-.358-.358V25.942A.715.715,0,0,1,13.652,25.227Z" transform="translate(-12.938 -23.722)"/><rect class="d" width="2.92" height="8.106" rx="0.715" transform="translate(7.048 4.584)"/><rect class="d" width="2.92" height="8.106" rx="0.715" transform="translate(12.561 7.177) rotate(90)"/><path class="f" d="M36.624,30.174V40.858H29.383V30.174a.358.358,0,0,1,.358-.358h6.525a.359.359,0,0,1,.359.358Z" transform="translate(-12.938 -23.722)"/><path class="f" d="M29.383,45.417h7.242v.014H29.383Z" transform="translate(-12.938 -23.722)"/><rect class="g" width="4.501" height="3.785" rx="0.179" transform="translate(17.815 7.405)"/><path class="e" d="M58.371,38.544v4.862l-16.425-.76-3.668-.492.939-15.379h6.525a1.069,1.069,0,0,1,.9.49l1.609,2.482,3.386,5.224.006.009,5.464,1.815a1.842,1.842,0,0,1,1.263,1.749Z" transform="translate(-12.937 -23.722)"/><path class="g" d="M51.638,34.971H44.062A1.358,1.358,0,0,1,42.7,33.612v-3.15a.716.716,0,0,1,.715-.715H48.25l.71,1.1Z" transform="translate(-12.938 -23.722)"/><path class="h" d="M57.594,38.656h.777v2.2h-.777a.743.743,0,0,1-.743-.743V39.4a.743.743,0,0,1,.743-.743Z" transform="translate(-12.937 -23.722)"/><path class="f" d="M54.267,42.437H58.3a.767.767,0,0,1,.767.767v1.447a.767.767,0,0,1-.767.767H54.267V42.436h0Z" transform="translate(-12.938 -23.722)"/><path class="i" d="M29.383,40.858h7.242v4.56H29.383Z" transform="translate(-12.938 -23.722)"/><g transform="translate(0 15.603)"><path class="d" d="M12.938,40.858H29.383v4.56H13.3a.358.358,0,0,1-.358-.358Z" transform="translate(-12.938 -39.326)"/><path class="d" d="M36.624,40.858h3.084v4.56H36.624Z" transform="translate(-12.938 -39.326)"/><path class="d" d="M40.508,40.858H51.823v4.56H40.508Z" transform="translate(-12.938 -39.326)"/><path class="d" d="M27.169,44.814a5.164,5.164,0,0,1-.034.6H16.519a5.164,5.164,0,0,1-.034-.6,5.344,5.344,0,1,1,10.684,0Z" transform="translate(-12.938 -39.326)"/></g><path class="i" d="M39.709,40.858h.8v4.56h-.8Z" transform="translate(-12.937 -23.722)"/><path class="f" d="M39.709,26.777h.8V40.858h-.8Z" transform="translate(-12.937 -23.722)"/><circle class="j" cx="3.71" cy="3.71" r="3.71" transform="translate(35.697 17.135)"/><circle class="f" cx="1.922" cy="1.922" r="1.922" transform="translate(37.486 18.923)"/><circle class="j" cx="3.71" cy="3.71" r="3.71" transform="translate(5.18 17.135)"/><circle class="f" cx="1.922" cy="1.922" r="1.922" transform="translate(6.968 18.923)"/><rect class="j" width="2.334" height="0.894" rx="0.447" transform="translate(29.766 12.948)"/><path class="k" d="M48.96,30.845l-1.837,4.127H45.608l2.324-5.223h.318Z" transform="translate(-12.938 -23.722)"/><path class="k" d="M44.881,34.971h-.3l2.325-5.223h.3Z" transform="translate(-12.938 -23.722)"/><path class="k" d="M34.976,31.127l-1.518,3.785H32.092l1.518-3.785Z" transform="translate(-12.937 -23.722)"/><path class="k" d="M32.955,31.127l-1.518,3.785h-.272l1.52-3.785Z" transform="translate(-12.937 -23.722)"/></g></g></svg>