<svg xmlns="http://www.w3.org/2000/svg" xmlns:xlink="http://www.w3.org/1999/xlink" width="160" height="160" viewBox="0 0 160 160"><defs><style>.a,.q{fill:#fff;}.a{stroke:#707070;}.b{clip-path:url(#a);}.c{fill:#ffc6a9;}.d{fill:#cadcff;opacity:0.8;}.e,.h{fill:#adc3f7;}.e{opacity:0.402;}.f,.g,.i{fill:#8993dc;}.g{opacity:0.139;}.g,.h,.i,.l,.m,.o,.z{mix-blend-mode:multiply;isolation:isolate;}.h{opacity:0.387;}.i,.l{opacity:0.375;}.j{fill:#9aa6e5;}.k,.s{fill:#fefefe;}.k{opacity:0.558;}.aa,.ab,.l,.r,.w{fill:none;}.l,.r{stroke:#8993dc;}.l,.w{stroke-linecap:round;}.aa,.ab,.l,.r{stroke-miterlimit:10;}.aa,.l{stroke-width:3px;}.m{fill:#54323a;opacity:0.319;}.n{fill:#f26d87;}.o{fill:#ef8494;opacity:0.252;}.p{fill:#ffe8e1;}.r{opacity:0.175;}.s{opacity:0.15;}.t{fill:#f4af90;}.u{fill:#ffac48;}.v{opacity:0.362;}.w{stroke:#ffac48;stroke-linejoin:round;stroke-width:0.5px;}.x,.z{fill:#f4ba38;}.y{fill:#ffdd50;}.z{opacity:0.714;}.aa{stroke:#ffecc2;}.ab{stroke:#fff;}</style><clipPath id="a"><rect class="a" width="160" height="160" transform="translate(-13210 -717)"/></clipPath></defs><g class="b" transform="translate(13210 717)"><g transform="translate(-13206.609 -702.718)"><g transform="translate(8.608 0)"><g transform="translate(20.856 0)"><ellipse class="c" cx="51.202" cy="8.019" rx="51.202" ry="8.019" transform="translate(0 122.81)"/><g transform="translate(15.073 24.52)"><path class="d" d="M229.148,171.173h-.005c-3.128-3.329-14.714-5.8-28.536-5.8-11.2,0-20.941,1.625-25.894,4.012h0c-.026.012-.049.027-.075.039q-.33.162-.631.328c-.089.049-.177.1-.263.151-.15.088-.292.176-.43.265-7.622,4.9-6.9,16.676-7.256,24.636-.68,15.182-.893,30.668.789,45.794.522,4.7,1.351,9.8,4.837,12.993,2.7,2.475,6.563,3.316,10.227,3.231,2.032-.047,35.728.668,37.708.428,4.445-.54,9-2.523,11.29-6.374a19.394,19.394,0,0,0,2.1-7.049c2.411-15.682,1.481-31.639,1.748-47.5C234.983,182.571,234.983,175.5,229.148,171.173Z" transform="translate(-165.551 -147.365)"/><path class="e" d="M277.839,196.325c-.265,15.865.666,31.819-1.748,47.5a19.333,19.333,0,0,1-2.1,7.046c-2.287,3.852-6.846,5.837-11.29,6.376-.609.074-4.191.057-8.933,0,4.444-.539,9-2.524,11.286-6.376a19.325,19.325,0,0,0,2.1-7.046c2.414-15.685,1.483-31.639,1.749-47.5.233-13.753.233-20.827-5.6-25.149h0c-2.79-2.965-12.29-5.253-24.107-5.71,1.47-.061,2.977-.09,4.509-.09,13.822,0,25.406,2.471,28.535,5.8h0C278.072,175.5,278.072,182.572,277.839,196.325Z" transform="translate(-208.64 -147.367)"/><path class="f" d="M236.536,135.734a1.835,1.835,0,0,1,.172-.5c.93-2.086,1.375-5.491-.261-7.384-2.308-2.669-6.966-3.529-10.212-4.206a90.3,90.3,0,0,0-18.409-1.678,90.289,90.289,0,0,0-18.411,1.679c-3.246.677-7.9,1.538-10.211,4.208-1.436,1.663-1.091,5.146-.624,7.126a2.87,2.87,0,0,1,.125.877,3.367,3.367,0,0,1-.311.967,9.9,9.9,0,0,0-.5,3.8,4.45,4.45,0,0,0,.9,3.1c2.148,3.652,14.331,6.45,29.038,6.45,15.743,0,28.591-3.206,29.338-7.234h.036a15.949,15.949,0,0,0-.582-6.567A1.741,1.741,0,0,1,236.536,135.734Z" transform="translate(-172.77 -121.965)"/><path class="g" d="M240.42,141.188a15.989,15.989,0,0,1,.581,6.565l-.038,0c-.747,4.028-13.594,7.233-29.338,7.233-12.331,0-22.89-1.968-27.242-4.755,5.159,2.191,14.469,3.651,25.1,3.651,15.744,0,28.591-3.205,29.338-7.233h.034a15.931,15.931,0,0,0-.581-6.565,1.768,1.768,0,0,1-.083-.641,1.823,1.823,0,0,1,.173-.5c.928-2.085,1.373-5.491-.264-7.384a7.482,7.482,0,0,0-1.6-1.369,9.693,9.693,0,0,1,3.748,2.474c1.637,1.89,1.191,5.295.26,7.384a1.811,1.811,0,0,0-.17.5A1.7,1.7,0,0,0,240.42,141.188Z" transform="translate(-176.571 -126.779)"/><path class="h" d="M240.2,371.2c0,1.467-9.643,2.657-21.538,2.657s-21.538-1.19-21.538-2.657,9.643-2.657,21.538-2.657S240.2,369.736,240.2,371.2Z" transform="translate(-184.026 -266.255)"/><ellipse class="i" cx="27.987" cy="6.137" rx="27.987" ry="6.137" transform="translate(6.649 0.728)"/><path class="j" d="M236.9,136.532c-2.753,2.757-13.949,4.82-27.339,4.82-15.457,0-27.988-2.749-27.988-6.139,0-.83.75-1.618,2.108-2.338a1.891,1.891,0,0,0-.653,1.32c0,3.39,12.527,6.135,27.984,6.135C222.7,140.329,232.713,138.761,236.9,136.532Z" transform="translate(-174.927 -128.349)"/><path class="k" d="M186.717,228.89c.934-8.324.5-16.808.384-25.151a4.405,4.405,0,0,0-.349-2.009,2.073,2.073,0,0,0-1.84-1.13,2.873,2.873,0,0,0-1.155.358,4.123,4.123,0,0,0-1.442,1.057,4,4,0,0,0-.613,2.445c-.2,6.824-.687,13.63-.672,20.462a19.832,19.832,0,0,0,1.225,8.1c.405.92,1.509,1.966,2.479,1.459a1.624,1.624,0,0,0,.581-.585A10.752,10.752,0,0,0,186.717,228.89Z" transform="translate(-174.609 -167.978)"/><path class="l" d="M184.626,156.723c.13.112,20.678,10.385,53.845,0" transform="translate(-176.713 -142.304)"/><path class="l" d="M184.626,166.044c.13.112,20.678,10.386,53.845,0" transform="translate(-176.713 -147.758)"/><path class="f" d="M240.076,136.365h-17.7a1.474,1.474,0,0,1-1.474-1.474h0a1.474,1.474,0,0,1,1.474-1.474h17.7a1.474,1.474,0,0,1,1.474,1.474h0A1.474,1.474,0,0,1,240.076,136.365Z" transform="translate(-197.942 -128.666)"/></g><g transform="translate(37.681 10.887)"><path class="m" d="M247.016,96.439c-.828,5.448-4.166,9.146-7.6,13.5a1.232,1.232,0,0,1-.838.473,2.48,2.48,0,0,1-1.208-.2,22.81,22.81,0,0,1-6.01-3.66c-2.083-1.751-4.386-3.8-5.238-6.384a5.456,5.456,0,0,1,2.738-6.839,5.245,5.245,0,0,1,4.835.529,7.1,7.1,0,0,1,1.765,1.97,9.539,9.539,0,0,1,1.778-3.566,5.461,5.461,0,0,1,.641-.632,7.451,7.451,0,0,1,4.657-1.694,4.623,4.623,0,0,1,2.326.557C247.194,91.772,247.349,94.253,247.016,96.439Z" transform="translate(-223.41 -89.593)"/><path class="n" d="M241.272,95.6c-.828,5.448-4.166,9.146-7.6,13.5a1.232,1.232,0,0,1-.838.473,2.48,2.48,0,0,1-1.208-.2,22.822,22.822,0,0,1-6.01-3.66c-2.083-1.751-4.386-3.8-5.238-6.385a5.455,5.455,0,0,1,2.738-6.838,5.245,5.245,0,0,1,4.835.529A7.1,7.1,0,0,1,229.716,95a9.543,9.543,0,0,1,1.778-3.567,5.455,5.455,0,0,1,.641-.632,7.454,7.454,0,0,1,4.657-1.695,4.623,4.623,0,0,1,2.326.557C241.45,90.933,241.6,93.414,241.272,95.6Z" transform="translate(-220.049 -89.102)"/><path class="o" d="M258.322,95.6c-.828,5.448-4.166,9.146-7.6,13.5a1.232,1.232,0,0,1-.838.473q.681-3.223,1.568-6.389c.852-3.047,1.844-6.277.95-9.31a4.472,4.472,0,0,0-2.031-2.789,2.531,2.531,0,0,0-1.184-.29,7.454,7.454,0,0,1,4.657-1.695,4.623,4.623,0,0,1,2.326.557C258.5,90.933,258.654,93.414,258.322,95.6Z" transform="translate(-237.098 -89.102)"/><path class="p" d="M226.11,102.235c.3-.5.934-.835.578-1.5-.29-.545-.875-.485-1.354-.264a3.152,3.152,0,0,0-1.258,1.12,3.724,3.724,0,0,0-.17,4.128c.261.365.745.686,1.132.459a.983.983,0,0,0,.363-.5,5.046,5.046,0,0,0,.378-1.545A4.231,4.231,0,0,1,226.11,102.235Z" transform="translate(-221.984 -95.66)"/></g><path class="n" d="M270.575,342.854c1.43-1.344,2.923-2.781,3.15-4.844a3.172,3.172,0,0,0-.808-2.572c-1.53-1.575-3.775-.643-5.013.8a10.28,10.28,0,0,0-2.117,5.157c-.242,1.534-.3,3.089-.44,4.636a1.027,1.027,0,0,0,.895,1.113c3.808.48,7.755.8,11.278-.656,1.416-.584,2.83-1.561,2.752-3.4a3.189,3.189,0,0,0-.5-1.575,5.023,5.023,0,0,0-4.664-2.019,16.343,16.343,0,0,0-4.078.94" transform="translate(-208.872 -221.881)"/><path class="q" d="M232.507,63.791a23.981,23.981,0,0,1,2.467,7.852.494.494,0,0,1-.1.409.365.365,0,0,1-.46-.014,1.055,1.055,0,0,1-.277-.412q-1.1-2.38-2.092-4.812c-.288-.708-1.859-3.364-.819-3.894C231.743,62.658,232.258,63.268,232.507,63.791Z" transform="translate(-188.704 -62.858)"/><path class="q" d="M228.331,80.595a11.708,11.708,0,0,1,2.642,3.028.242.242,0,0,1,.036.2.178.178,0,0,1-.208.083.514.514,0,0,1-.2-.129q-.96-.848-1.879-1.742c-.268-.26-1.491-1.14-1.129-1.581C227.768,80.239,228.118,80.41,228.331,80.595Z" transform="translate(-186.741 -73.096)"/><path class="q" d="M246.454,71.413a16.071,16.071,0,0,0-1.954,5.159.329.329,0,0,0,.049.278.244.244,0,0,0,.308.008.7.7,0,0,0,.2-.264q.831-1.551,1.586-3.139c.22-.462,1.374-2.179.7-2.574C247.009,70.685,246.641,71.073,246.454,71.413Z" transform="translate(-196.671 -67.522)"/><g transform="translate(29.55 70.078)"><path class="n" d="M208.158,239.79c-.436-1.791-.922-3.678-2.664-4.853a3.683,3.683,0,0,0-2.765-.593c-2.257.464-2.638,2.71-2.009,4.393a9.784,9.784,0,0,0,3.509,4.177c1.254.933,2.63,1.727,3.951,2.586a1.181,1.181,0,0,0,1.493-.179c2.508-2.814,4.944-5.818,5.549-9.336.243-1.414.13-3.015-1.572-3.838a3.726,3.726,0,0,0-1.7-.358,5.309,5.309,0,0,0-4.366,2.757,14.047,14.047,0,0,0-1.371,3.715" transform="translate(-200.449 -231.787)"/><path class="o" d="M226.952,235.986c-.6,3.52-3.042,6.524-5.55,9.337a1.141,1.141,0,0,1-.909.363c1.63-3.257,3.089-6.657,2.779-10.085a3.363,3.363,0,0,0-1.914-3.134,4.736,4.736,0,0,1,2.324-.673,3.726,3.726,0,0,1,1.7.355C227.082,232.971,227.195,234.574,226.952,235.986Z" transform="translate(-212.178 -231.79)"/><path class="p" d="M204.84,243.523c0-.409.667-2.235-.348-1.9a1.261,1.261,0,0,0-.63.714,2.966,2.966,0,0,0-.265,1.4,1.244,1.244,0,0,0,.195.664.587.587,0,0,0,.609.25.637.637,0,0,0,.4-.475A2.688,2.688,0,0,0,204.84,243.523Z" transform="translate(-202.288 -237.517)"/></g><path class="p" d="M277.081,339.73c.365-.265,2.426-.861,1.47-1.551a1.392,1.392,0,0,0-1.046-.1,3.266,3.266,0,0,0-1.42.677,1.369,1.369,0,0,0-.465.606.649.649,0,0,0,.174.706.7.7,0,0,0,.685.048A2.944,2.944,0,0,0,277.081,339.73Z" transform="translate(-214.865 -223.877)"/><g transform="translate(39.364 88.825)"><path class="n" d="M233.532,287.486c.51-2.391,1.083-4.909,3.3-6.521a4.679,4.679,0,0,1,3.564-.869c2.938.55,3.5,3.519,2.735,5.772a12.926,12.926,0,0,1-4.419,5.65c-1.6,1.275-3.356,2.37-5.04,3.549a1.5,1.5,0,0,1-1.94-.194c-3.334-3.661-6.58-7.577-7.47-12.229-.358-1.87-.26-4,1.921-5.142a4.733,4.733,0,0,1,2.187-.526,6.868,6.868,0,0,1,5.738,3.531A18.97,18.97,0,0,1,236,285.4" transform="translate(-224.107 -276.977)"/><path class="o" d="M255.379,290.172a12.926,12.926,0,0,1-4.417,5.651c-1.6,1.273-3.357,2.37-5.038,3.547a1.508,1.508,0,0,1-.888.266,1.827,1.827,0,0,0,.223-.247c1.206-1.662,2.517-3.267,3.609-4.991a12.9,12.9,0,0,0,2.341-6.781,5.52,5.52,0,0,0-.879-3.006,4.449,4.449,0,0,1,2.313-.214C255.583,284.948,256.144,287.916,255.379,290.172Z" transform="translate(-236.354 -281.28)"/><path class="p" d="M230.275,283.822c.4-1.136.666-2.986-.432-2.628a1.752,1.752,0,0,0-.875.992c-.334.725-.739,2.017.079,2.573a.607.607,0,0,0,.369.122.765.765,0,0,0,.474-.281A2.507,2.507,0,0,0,230.275,283.822Z" transform="translate(-226.716 -279.418)"/></g><g transform="translate(54.678 71.1)"><path class="n" d="M268.953,242.775c-.448-1.908-.949-3.916-2.74-5.168a3.687,3.687,0,0,0-2.845-.631c-2.322.494-2.713,2.885-2.067,4.679a10.34,10.34,0,0,0,3.61,4.449c1.291.993,2.707,1.839,4.065,2.754a1.186,1.186,0,0,0,1.537-.191c2.58-3,5.087-6.2,5.709-9.942.25-1.506.134-3.211-1.617-4.087a3.726,3.726,0,0,0-1.746-.382,5.451,5.451,0,0,0-4.491,2.937,15.311,15.311,0,0,0-1.411,3.956" transform="translate(-261.021 -234.251)"/><path class="o" d="M288.919,238.719c-.622,3.748-3.13,6.946-5.709,9.944a1.12,1.12,0,0,1-.362.275c1.7-3.149,3.157-6.445,3.024-9.869-.056-1.527-.513-3.171-2.406-3.68a3.325,3.325,0,0,0-.747-.11,4.789,4.789,0,0,1,2.836-1.03,3.741,3.741,0,0,1,1.746.381C289.051,235.51,289.168,237.214,288.919,238.719Z" transform="translate(-273.719 -234.249)"/><path class="p" d="M266,246.1c0-.485.227-1.52-.724-1.279-.79.2-.809,1.722-.433,2.244a.648.648,0,0,0,.672.276.7.7,0,0,0,.443-.525A2.942,2.942,0,0,0,266,246.1Z" transform="translate(-263.12 -240.416)"/></g><g transform="translate(33.368 111.9)"><path class="n" d="M214.345,336.607a4.043,4.043,0,0,1-.786-2.737,1.565,1.565,0,0,1,.752-1.1c.948-.521,1.872.242,2.248,1.1a5.067,5.067,0,0,1,.254,2.736c-.107.758-.305,1.5-.462,2.248a.505.505,0,0,1-.582.4,10.944,10.944,0,0,1-5.221-1.936,1.791,1.791,0,0,1-.807-2,1.571,1.571,0,0,1,.463-.67,2.475,2.475,0,0,1,2.489-.279,8.056,8.056,0,0,1,1.787,1.031" transform="translate(-209.653 -332.603)"/><path class="o" d="M221.707,339.155c-.062-.7-.1-1.406-.211-2.1a5.074,5.074,0,0,0-1.059-2.537,2.27,2.27,0,0,0-1.305-.77,1.543,1.543,0,0,1,.726-.974c.948-.523,1.87.241,2.248,1.1a5.061,5.061,0,0,1,.254,2.735c-.108.758-.307,1.5-.462,2.249A.49.49,0,0,1,221.707,339.155Z" transform="translate(-215.2 -332.603)"/><path class="p" d="M212.279,339.262c.1-.282.454-.835-.149-.9-.5-.051-.835.828-.728,1.211a.4.4,0,0,0,.332.3.436.436,0,0,0,.369-.211A1.84,1.84,0,0,0,212.279,339.262Z" transform="translate(-210.664 -335.973)"/></g><g transform="translate(45.208 59.593)"><path class="n" d="M243.287,212.763A5.52,5.52,0,0,1,245.6,209.3a2.792,2.792,0,0,1,2.119-.267c1.669.492,1.812,2.2,1.231,3.417a7.36,7.36,0,0,1-2.907,2.9c-1,.618-2.09,1.124-3.138,1.682a.9.9,0,0,1-1.112-.23c-1.708-2.267-3.35-4.672-3.58-7.345a2.407,2.407,0,0,1,1.428-2.772,2.828,2.828,0,0,1,1.3-.159,4.012,4.012,0,0,1,3.11,2.344,10.542,10.542,0,0,1,.795,2.869" transform="translate(-238.193 -206.513)"/><path class="p" d="M241.963,209.881a.578.578,0,0,0,.08-.846c-.465-.681-1.292-.245-1.536.389a.648.648,0,0,0,.136.714.7.7,0,0,0,.682.084A1.923,1.923,0,0,0,241.963,209.881Z" transform="translate(-239.518 -207.787)"/></g><path class="r" d="M312.068,201.97c.933,20.55,1.858,41.272-1.4,61.584a23.349,23.349,0,0,1-2,7.124,8.778,8.778,0,0,1-5.47,4.688" transform="translate(-231.025 -144.261)"/></g><path class="s" d="M190.734,193.9c3.226,0,8.506-.4,10.469,2.739a6.723,6.723,0,0,1,.817,3.251c.1,1.849.2,3.69.161,5.543q-.15,6.674-.371,13.345c-.282,8.74-.628,17.478-.944,26.217q-.132,3.656-.254,7.312c-.126,3.791-.646,8.2-4.047,10.178a11.5,11.5,0,0,1-5.47,1.172,53.813,53.813,0,0,1-11.764-.948,5.425,5.425,0,0,1-3.174-1.415,5.026,5.026,0,0,1-.906-3.005,327.149,327.149,0,0,1-.85-36.434c.158-4.428.274-8.857.506-13.281.117-2.241.264-4.481.461-6.717.182-2.063.234-4.043,1.385-5.854a4.858,4.858,0,0,1,2.479-2.057,8.868,8.868,0,0,1,3.5-.133C185.373,194.019,188.066,193.9,190.734,193.9Z" transform="translate(-134.693 -139.427)"/><g transform="translate(0 87.998)"><g transform="translate(0 8.273)"><g transform="translate(2.811 4.8)"><path class="t" d="M86.188,306.585a77.8,77.8,0,0,0,9.278,8.616q2.693,2.129,5.544,4.047,1.422.961,2.876,1.873c.353.222,2.492,1.238,2.195,1.7-.287.448-1.934-.87-2.289-1.092q-1.269-.794-2.515-1.623-2.492-1.66-4.879-3.469a79.417,79.417,0,0,1-9.533-8.492q-.541-.57-1.07-1.151C85.551,306.725,85.942,306.315,86.188,306.585Z" transform="translate(-85.718 -306.497)"/></g><path class="t" d="M83.6,301.849a23.788,23.788,0,0,0-1.673-5.052,4.622,4.622,0,0,0-.841-1.342,1.606,1.606,0,0,0-1.442-.5.85.85,0,0,0-.437.239.953.953,0,0,0-.2.4,2.861,2.861,0,0,0,.137,1.64,7.489,7.489,0,0,0,4.457,4.62" transform="translate(-78.941 -294.925)"/><path class="t" d="M93.178,307.7a10.575,10.575,0,0,1-.615-2.1,3.55,3.55,0,0,1,.28-2.137,1.071,1.071,0,0,1,.839-.662,1.037,1.037,0,0,1,.844.6,2.822,2.822,0,0,1,.124,2.332,5.105,5.105,0,0,1-1.381,1.947" transform="translate(-86.883 -299.533)"/><path class="t" d="M85.769,313.165a9.885,9.885,0,0,0-3.261-.539,1.3,1.3,0,0,0-1.15.532.892.892,0,0,0,.136.938,1.563,1.563,0,0,0,.851.5,3.36,3.36,0,0,0,2.04-.2,8.885,8.885,0,0,0,1.8-1.048" transform="translate(-80.308 -305.279)"/><path class="t" d="M101.944,315.767a2.373,2.373,0,0,1-.424-1.053,11.841,11.841,0,0,1-.215-1.522,3.056,3.056,0,0,1,.068-1.1,1.762,1.762,0,0,1,.507-.8A1.1,1.1,0,0,1,102.4,311a1.059,1.059,0,0,1,1.107.789,2.449,2.449,0,0,1-.117,1.459,7.769,7.769,0,0,1-1.271,2.379" transform="translate(-92.016 -304.327)"/><path class="t" d="M93.931,320.039a6.331,6.331,0,0,0-2.21-.575,2.151,2.151,0,0,0-1.944,1,.587.587,0,0,0-.039.585.658.658,0,0,0,.362.225,4.649,4.649,0,0,0,4.547-1.018" transform="translate(-85.222 -309.285)"/><path class="t" d="M101.787,328.041a8.452,8.452,0,0,0-2.305-.328,2.848,2.848,0,0,0-2.079.911.794.794,0,0,0-.227.643.8.8,0,0,0,.605.521,2.942,2.942,0,0,0,2.093-.252,8.747,8.747,0,0,0,1.759-1.24" transform="translate(-89.605 -314.109)"/><path class="t" d="M110.851,323.121a7.3,7.3,0,0,1-.436-2.09,3.262,3.262,0,0,1,.195-1.482,1.566,1.566,0,0,1,1.093-.952.6.6,0,0,1,.443.063.709.709,0,0,1,.186.214,1.631,1.631,0,0,1,.29.76,1.889,1.889,0,0,1-.18.8,10.522,10.522,0,0,1-1.573,2.686" transform="translate(-97.352 -308.768)"/><path class="t" d="M111.967,335.639a5.781,5.781,0,0,0-2.935-.057,2.5,2.5,0,0,0-1.548.931.828.828,0,0,0-.125.775.843.843,0,0,0,.416.377,2.216,2.216,0,0,0,1.437.131,4.376,4.376,0,0,0,1.34-.587,8.582,8.582,0,0,0,1.763-1.446" transform="translate(-95.539 -318.621)"/><path class="t" d="M120.5,329.972a2.373,2.373,0,0,1-.219-.516,6.786,6.786,0,0,1-.455-2.069,2.294,2.294,0,0,1,.82-1.878.736.736,0,0,1,.794-.124.744.744,0,0,1,.238.276,2.723,2.723,0,0,1,.084,2.234,8.07,8.07,0,0,1-1.171,1.978" transform="translate(-102.866 -312.707)"/><path class="t" d="M129.206,337.057a5.735,5.735,0,0,1-1.016-2.064,1.866,1.866,0,0,1-.132-.638,1.427,1.427,0,0,1,.163-.568,1.645,1.645,0,0,1,.708-.79,1.169,1.169,0,0,1,1.547.628,1.966,1.966,0,0,1,0,1.052,7.825,7.825,0,0,1-.948,2.454" transform="translate(-107.682 -317.144)"/><path class="t" d="M123.2,343.212a15.1,15.1,0,0,0-3.932-.047,2.181,2.181,0,0,0-1.154.431,1.015,1.015,0,0,0-.336,1.118,1.2,1.2,0,0,0,.7.591,2.5,2.5,0,0,0,2.024-.094,19.709,19.709,0,0,0,1.62-1.207,3.518,3.518,0,0,0,1.083-.793" transform="translate(-101.632 -323.092)"/></g><g transform="translate(9.042)"><g transform="translate(18.992 28.99)"><path class="q" d="M168.512,356.212a7.993,7.993,0,0,1-1.427-2.71,23.278,23.278,0,0,1-.772-3.076c-.275-1.5-.387-3.139.683-4.4a3.294,3.294,0,0,1,2.879-1.128,3.241,3.241,0,0,1,2.372,1.978c1.374,2.969.19,6.346-1.995,9" transform="translate(-157.993 -344.865)"/><path class="q" d="M160.122,363.35a11.605,11.605,0,0,0-2.145-4.747,5.983,5.983,0,0,0-1.961-1.79,3.917,3.917,0,0,0-2.893-.342,2.387,2.387,0,0,0-1.72,2.465,4.486,4.486,0,0,0,1.64,2.661,9.915,9.915,0,0,0,6.016,2.586" transform="translate(-149.371 -351.573)"/><path class="q" d="M157.272,373.241c-1.223-.933-4.5-1.437-6.209-1.383a7.351,7.351,0,0,0-2.8.571,2.883,2.883,0,0,0-1.7,1.768c-.283,1.179.785,2.386,2.207,2.845a7.226,7.226,0,0,0,4.482-.215,17.767,17.767,0,0,0,3.784-2.041" transform="translate(-146.521 -360.658)"/><path class="q" d="M166.061,377.534a6.05,6.05,0,0,0-2.572,4.486,2.958,2.958,0,0,0,.244,1.817c.648,1.167,2.735,1.779,4.316,1.266a3.327,3.327,0,0,0,2.334-3.483c-.107-1.372-1.83-3.68-2.151-5.035" transform="translate(-156.427 -363.427)"/><path class="q" d="M174.873,374.787a1.588,1.588,0,0,0-.754,1.067c-.008.4.422.789.686,1.1a12.049,12.049,0,0,0,2.27,2.057,8.148,8.148,0,0,0,2.565,1.251,5.315,5.315,0,0,0,4.794-1.081,2.651,2.651,0,0,0,.689-1.763,1.958,1.958,0,0,0-.271-1.121,3.581,3.581,0,0,0-1.927-1.211,13.254,13.254,0,0,0-7.891-.075" transform="translate(-162.67 -362.175)"/><path class="q" d="M172.438,362.115c.758-2.924,1.622-6.012,4.247-8.185a4.155,4.155,0,0,1,2.589-1.09,4.6,4.6,0,0,1,1.868.487,4.245,4.245,0,0,1,1.792,1.283,2.265,2.265,0,0,1,.347,1.555c-.2,1.759-1.836,3.213-3.6,4.321a25.294,25.294,0,0,1-5.906,2.691" transform="translate(-161.687 -349.532)"/><path class="u" d="M169.164,370.372a1.8,1.8,0,0,0-2.078.833,1.723,1.723,0,0,0,.351,1.818,2.467,2.467,0,0,0,1.693.787,2.189,2.189,0,0,0,1.736-.677,1.493,1.493,0,0,0,.1-1.786,2.4,2.4,0,0,0-1.806-.977" transform="translate(-158.481 -359.767)"/></g><g transform="translate(2.97)"><path class="q" d="M139.329,286.148a8.323,8.323,0,0,1,.136-3.463,25.06,25.06,0,0,1,1.059-3.47c.624-1.634,1.512-3.324,3.429-3.994a4.338,4.338,0,0,1,3.769.446,3.447,3.447,0,0,1,1.324,3.252c-.351,3.691-3.686,6.4-7.652,7.845" transform="translate(-126.205 -274.983)"/><path class="q" d="M129.744,288.157a12.159,12.159,0,0,0,.617-5.874,6.274,6.274,0,0,0-1-2.842,4.7,4.7,0,0,0-2.884-1.912,3.078,3.078,0,0,0-3.35,1.509,4.672,4.672,0,0,0,.123,3.531A11.073,11.073,0,0,0,128.1,288.4" transform="translate(-116.636 -276.439)"/><path class="q" d="M120.513,297.094c-.735-1.59-3.928-3.871-5.791-4.747a9.494,9.494,0,0,0-3.343-.955,3.824,3.824,0,0,0-2.9.83c-1.025,1.015-.623,2.793.616,4.021a9.027,9.027,0,0,0,4.924,2.224,23.834,23.834,0,0,0,5.3.033" transform="translate(-107.898 -284.578)"/><path class="q" d="M124.213,307.335a7.757,7.757,0,0,0-5.5,3.05,3.262,3.262,0,0,0-.852,1.935c-.022,1.51,1.834,3.252,3.839,3.6a4.278,4.278,0,0,0,4.63-2.185c.726-1.419.3-4.645.786-6.163" transform="translate(-113.727 -293.914)"/><path class="q" d="M139.781,307.127a2.068,2.068,0,0,0-1.46.648c-.251.388-.032,1.011.06,1.462a12.66,12.66,0,0,0,1.166,3.275,9,9,0,0,0,1.976,2.635,6.855,6.855,0,0,0,5.788,1.535,3.308,3.308,0,0,0,1.817-1.374,2.115,2.115,0,0,0,.4-1.259,3.868,3.868,0,0,0-1.318-2.248,16.355,16.355,0,0,0-8.391-4.364" transform="translate(-125.632 -293.793)"/><path class="q" d="M138.307,296.785c2.6-2.488,5.419-5.081,9.559-5.808a5.507,5.507,0,0,1,3.436.326,5.337,5.337,0,0,1,1.7,1.5,4.539,4.539,0,0,1,1.129,2.247,2.455,2.455,0,0,1-.582,1.731c-1.287,1.638-3.932,2.188-6.5,2.326a33.773,33.773,0,0,1-7.964-.543" transform="translate(-125.692 -284.268)"/><path class="u" d="M136.084,299.473a2.358,2.358,0,0,0-2.733-.3,1.891,1.891,0,0,0-.739,1.994,2.74,2.74,0,0,0,1.327,1.7,2.886,2.886,0,0,0,2.272.272,1.728,1.728,0,0,0,1.206-1.714,2.626,2.626,0,0,0-1.333-1.95" transform="translate(-122.329 -288.955)"/></g><g transform="translate(0 24.992)"><path class="q" d="M121.815,359.345a7,7,0,0,1,.729,2.821,21.019,21.019,0,0,1-.012,3.05,5.077,5.077,0,0,1-1.794,4.046,3.645,3.645,0,0,1-3.142.554,2.9,2.9,0,0,1-1.853-2.3c-.611-3.057,1.419-6.043,4.261-8.169" transform="translate(-109.454 -349.34)"/><path class="q" d="M130.214,357.419a10.227,10.227,0,0,0,.926,4.879,5.276,5.276,0,0,0,1.493,2.046,3.955,3.955,0,0,0,2.785.841,2.588,2.588,0,0,0,2.332-2.026,3.928,3.928,0,0,0-.953-2.813,9.31,9.31,0,0,0-5.315-3.525" transform="translate(-117.975 -347.863)"/><path class="q" d="M130.734,352.512c.977,1.1,4.1,2.165,5.811,2.42a7.981,7.981,0,0,0,2.923-.04,3.213,3.213,0,0,0,2.133-1.37c.579-1.065-.175-2.4-1.469-3.088a7.594,7.594,0,0,0-4.5-.6,20.008,20.008,0,0,0-4.272,1.256" transform="translate(-118.291 -343.719)"/><path class="q" d="M129.7,342.777a6.522,6.522,0,0,0,3.69-3.787,2.749,2.749,0,0,0,.218-1.764c-.348-1.221-2.263-2.174-3.963-1.971a3.6,3.6,0,0,0-3.2,2.88c-.241,1.318.884,3.812.859,5.152" transform="translate(-115.763 -335.228)"/><path class="q" d="M113.734,346.518a1.741,1.741,0,0,0,1.018-.875c.108-.374-.219-.822-.4-1.163a10.633,10.633,0,0,0-1.731-2.354,7.56,7.56,0,0,0-2.229-1.643,5.763,5.763,0,0,0-5.032.165,2.784,2.784,0,0,0-1.13,1.546,1.779,1.779,0,0,0-.015,1.11,3.251,3.251,0,0,0,1.6,1.491,13.749,13.749,0,0,0,7.812,1.482" transform="translate(-102.723 -338.013)"/><path class="q" d="M113.182,354.669c-1.493,2.633-3.133,5.4-6.289,6.99a4.631,4.631,0,0,1-2.845.569,4.484,4.484,0,0,1-1.73-.8,3.814,3.814,0,0,1-1.453-1.536,2.066,2.066,0,0,1,.05-1.534c.64-1.63,2.636-2.713,4.67-3.446a28.421,28.421,0,0,1,6.543-1.491" transform="translate(-100.738 -345.876)"/><path class="u" d="M127.393,356.294a1.982,1.982,0,0,0,2.273-.417,1.589,1.589,0,0,0,.112-1.784,2.3,2.3,0,0,0-1.481-1.049,2.428,2.428,0,0,0-1.895.331,1.453,1.453,0,0,0-.556,1.672,2.208,2.208,0,0,0,1.545,1.247" transform="translate(-115.383 -345.616)"/></g><g class="v" transform="translate(22.901 33.012)"><path class="w" d="M170.642,380.631a17.382,17.382,0,0,0-.229,3.956" transform="translate(-164.394 -369.817)"/><path class="w" d="M172.214,381.42q.175,1.042.441,2.068" transform="translate(-165.464 -370.278)"/><path class="w" d="M178.181,377.732A13.633,13.633,0,0,0,181,379.308" transform="translate(-168.955 -368.12)"/><path class="w" d="M177.56,364.731a34.516,34.516,0,0,1,3.19-3.706" transform="translate(-168.592 -358.344)"/><path class="w" d="M178.946,368.229l1.746-1.337" transform="translate(-169.403 -361.777)"/><path class="w" d="M172.844,354.562a30.484,30.484,0,0,0,.134,5.516" transform="translate(-165.793 -354.562)"/><path class="w" d="M170.709,362.528a9.867,9.867,0,0,0,.451,1.556" transform="translate(-164.583 -359.223)"/><path class="w" d="M160.424,363.738a9.437,9.437,0,0,0,1.983,1.724" transform="translate(-158.565 -359.931)"/><path class="w" d="M161.641,368.465l.723.333" transform="translate(-159.277 -362.698)"/><path class="w" d="M155.942,377.817a31.88,31.88,0,0,0,3.122-1.228" transform="translate(-155.942 -367.451)"/><path class="w" d="M161.555,379.3a5.2,5.2,0,0,0,.8-.513" transform="translate(-159.227 -368.739)"/></g><g class="v" transform="translate(5.187 28.097)"><path class="w" d="M120.891,347.444a17.385,17.385,0,0,0-2.441-3.121" transform="translate(-116.289 -343.655)"/><path class="w" d="M120.512,350.275q-.82-.668-1.7-1.261" transform="translate(-116.503 -346.4)"/><path class="w" d="M116.4,358.764a13.62,13.62,0,0,0-3.161.681" transform="translate(-113.241 -352.105)"/><path class="w" d="M126.461,364.192a34.586,34.586,0,0,1,.052,4.889" transform="translate(-120.977 -355.281)"/><path class="w" d="M124.712,364.989l-.429,2.157" transform="translate(-119.702 -355.748)"/><path class="w" d="M134.818,366.982a30.442,30.442,0,0,0-3.743-4.054" transform="translate(-123.676 -354.542)"/><path class="w" d="M134.584,364.018a9.875,9.875,0,0,0-1.367-.871" transform="translate(-124.93 -354.67)"/><path class="w" d="M139.73,357.426a9.442,9.442,0,0,0-2.627.015" transform="translate(-127.204 -351.273)"/><path class="w" d="M138.323,354.8l-.762.227" transform="translate(-127.472 -349.785)"/><path class="w" d="M134.2,342.712a31.918,31.918,0,0,0-1.533,2.984" transform="translate(-124.605 -342.712)"/><path class="w" d="M131.464,346.062a5.2,5.2,0,0,0-.258.911" transform="translate(-123.753 -344.672)"/></g><g class="v" transform="translate(7.758 4.868)"><path class="w" d="M143.7,294.189a17.389,17.389,0,0,0,3.168-2.379" transform="translate(-133.634 -289.698)"/><path class="w" d="M143.518,293.755q.684-.806,1.294-1.671" transform="translate(-133.529 -289.858)"/><path class="w" d="M133.25,289.892a13.6,13.6,0,0,0-.619-3.173" transform="translate(-127.158 -286.719)"/><path class="w" d="M124.328,303.935a34.531,34.531,0,0,1-4.889-.043" transform="translate(-119.439 -296.768)"/><path class="w" d="M127.418,302.172l-2.148-.47" transform="translate(-122.851 -295.486)"/><path class="w" d="M122.452,312.3a30.493,30.493,0,0,0,4.126-3.663" transform="translate(-121.202 -299.543)"/><path class="w" d="M129.974,312.121a9.832,9.832,0,0,0,.9-1.349" transform="translate(-125.604 -300.794)"/><path class="w" d="M135.28,315.025a9.425,9.425,0,0,0,.036-2.626" transform="translate(-128.709 -301.746)"/><path class="w" d="M142.744,314.153l-.213-.767" transform="translate(-132.952 -302.324)"/><path class="w" d="M148.341,312.067a31.906,31.906,0,0,0-2.954-1.591" transform="translate(-134.623 -300.621)"/><path class="w" d="M147.969,309.328a5.215,5.215,0,0,0-.905-.276" transform="translate(-135.604 -299.787)"/></g></g></g></g><g transform="translate(0 12.689)"><g transform="translate(0 7.988)"><path class="q" d="M107.243,216.335a1.6,1.6,0,1,1-1.6-1.6A1.6,1.6,0,0,1,107.243,216.335Z" transform="translate(-85.026 -172.41)"/><circle class="n" cx="1.772" cy="1.772" r="1.772" transform="translate(134.922 102.123)"/><circle class="f" cx="1.508" cy="1.508" r="1.508" transform="translate(37.006 51.143)"/><circle class="q" cx="1.508" cy="1.508" r="1.508" transform="translate(150.532 24.845)"/><path class="f" d="M198.687,114.21a1.508,1.508,0,1,1-1.508-1.508A1.508,1.508,0,0,1,198.687,114.21Z" transform="translate(-138.639 -112.702)"/><circle class="n" cx="1.508" cy="1.508" r="1.508" transform="translate(117.295 31.773)"/><circle class="n" cx="1.508" cy="1.508" r="1.508" transform="translate(18.664 51.643)"/><circle class="f" cx="1.066" cy="1.066" r="1.066" transform="translate(120.251 24.608)"/><circle class="f" cx="1.066" cy="1.066" r="1.066" transform="translate(0 89.647)"/><path class="n" d="M96.279,155.024a1.2,1.2,0,1,1-1.2-1.2A1.2,1.2,0,0,1,96.279,155.024Z" transform="translate(-79.069 -136.763)"/><circle class="f" cx="1.508" cy="1.508" r="1.508" transform="translate(142.75 60.108)"/></g><g transform="translate(16.269 0)"><g transform="translate(1.753 0.983)"><path class="x" d="M118.234,99.224a9.113,9.113,0,0,0-1.929-.676c-8.188-1.873-16.333,7.511-12.154,15.167a11.264,11.264,0,0,0,12.436,5.086,10.411,10.411,0,0,0,7.314-7.213,11.309,11.309,0,0,0-3.583-10.991A9.584,9.584,0,0,0,118.234,99.224Z" transform="translate(-102.445 -97.273)"/><path class="y" d="M116.848,96.734a9.086,9.086,0,0,0-1.928-.676c-8.189-1.873-16.333,7.511-12.154,15.167a11.263,11.263,0,0,0,12.436,5.086,10.41,10.41,0,0,0,7.314-7.213,11.307,11.307,0,0,0-3.583-10.991A9.545,9.545,0,0,0,116.848,96.734Z" transform="translate(-101.634 -95.816)"/><path class="x" d="M119.668,103.346a6.633,6.633,0,0,0-1.4-.492c-5.953-1.361-11.873,5.46-8.835,11.026a8.188,8.188,0,0,0,9.04,3.7,7.568,7.568,0,0,0,5.317-5.244,8.219,8.219,0,0,0-2.6-7.99A6.972,6.972,0,0,0,119.668,103.346Z" transform="translate(-105.715 -99.832)"/><path class="z" d="M121.168,114.723a5.717,5.717,0,0,0-.258-2.042,1.942,1.942,0,0,0-1.481-1.3,1.454,1.454,0,0,0-1.311.575,2.279,2.279,0,0,0-.356,1.316,5.171,5.171,0,0,0,.32,1.9,19.528,19.528,0,0,0,1.435,2.572,9.889,9.889,0,0,1,1.021,2.678c1.723-1.147,3.516-2.37,4.473-4.205a3.354,3.354,0,0,0,.437-1.58,1.765,1.765,0,0,0-.7-1.432,1.911,1.911,0,0,0-1.983.049,5.617,5.617,0,0,0-1.491,1.448" transform="translate(-111.072 -104.921)"/><path class="aa" d="M109.323,103.637a7.336,7.336,0,0,0-3.872,6.2" transform="translate(-103.868 -100.393)"/></g><g transform="translate(101.962 42.777)"><path class="x" d="M358.789,200.742a7.788,7.788,0,0,0-1.474-.952c-6.457-3.205-15.135,3.033-13.184,10.285a9.645,9.645,0,0,0,9.356,6.747,8.952,8.952,0,0,0,7.55-4.585,9.773,9.773,0,0,0-.784-9.928A8.227,8.227,0,0,0,358.789,200.742Z" transform="translate(-343.58 -197.947)"/><path class="y" d="M358.133,198.378a7.8,7.8,0,0,0-1.473-.952c-6.457-3.205-15.135,3.033-13.184,10.285a9.646,9.646,0,0,0,9.355,6.747,8.951,8.951,0,0,0,7.55-4.585,9.772,9.772,0,0,0-.784-9.928A8.2,8.2,0,0,0,358.133,198.378Z" transform="translate(-343.196 -196.563)"/><path class="x" d="M360.094,203.715a5.664,5.664,0,0,0-1.071-.692c-4.694-2.33-11,2.2-9.584,7.477a7.012,7.012,0,0,0,6.8,4.905,6.508,6.508,0,0,0,5.488-3.333,7.1,7.1,0,0,0-.57-7.217A5.966,5.966,0,0,0,360.094,203.715Z" transform="translate(-346.73 -199.976)"/><path class="z" d="M360.81,211.888a4.953,4.953,0,0,0,.194-1.763,1.67,1.67,0,0,0-.975-1.383,1.245,1.245,0,0,0-1.209.22,1.971,1.971,0,0,0-.561,1.033,4.476,4.476,0,0,0-.113,1.653,16.815,16.815,0,0,0,.682,2.442,8.563,8.563,0,0,1,.314,2.449,10.68,10.68,0,0,0,4.575-2.632,2.894,2.894,0,0,0,.682-1.237,1.524,1.524,0,0,0-.3-1.34,1.633,1.633,0,0,0-1.664-.355,4.83,4.83,0,0,0-1.535.916" transform="translate(-351.926 -203.649)"/><path class="aa" d="M352.139,200.94a6.324,6.324,0,0,0-4.474,4.419" transform="translate(-345.811 -199.124)"/></g><g transform="translate(9.49 33.959)"><path class="x" d="M128.939,176.362a7.338,7.338,0,0,0-1.553.481c-6.133,2.674-7.034,12.433-.807,15.3a9.053,9.053,0,0,0,10.35-2.645,8.226,8.226,0,0,0,1.37-8,8.749,8.749,0,0,0-7.385-5.252A7.631,7.631,0,0,0,128.939,176.362Z" transform="translate(-121.478 -175.847)"/><path class="y" d="M126.9,175.443a7.33,7.33,0,0,0-1.553.481c-6.133,2.674-7.034,12.433-.807,15.3a9.052,9.052,0,0,0,10.35-2.645,8.226,8.226,0,0,0,1.371-8,8.75,8.75,0,0,0-7.385-5.252A7.648,7.648,0,0,0,126.9,175.443Z" transform="translate(-120.283 -175.309)"/><path class="x" d="M130.381,180.877a5.331,5.331,0,0,0-1.129.35c-4.458,1.944-5.113,9.038-.587,11.121a6.58,6.58,0,0,0,7.524-1.923,5.98,5.98,0,0,0,1-5.814,6.36,6.36,0,0,0-5.368-3.817A5.546,5.546,0,0,0,130.381,180.877Z" transform="translate(-123.379 -178.51)"/><path class="z" d="M133.62,191.23a4.4,4.4,0,0,0-1.11-1.167,1.54,1.54,0,0,0-1.552-.122,1.171,1.171,0,0,0-.577.981,1.755,1.755,0,0,0,.38,1,3.984,3.984,0,0,0,1.082,1.046,15.175,15.175,0,0,0,2.112.947,7.664,7.664,0,0,1,1.895,1.21,9.831,9.831,0,0,0,.933-4.761,2.586,2.586,0,0,0-.449-1.2,1.372,1.372,0,0,0-1.113-.574,1.547,1.547,0,0,0-1.253.965,4.439,4.439,0,0,0-.29,1.617" transform="translate(-126.192 -183.077)"/><path class="aa" d="M122.846,190.251a5.731,5.731,0,0,0,.373,5.735" transform="translate(-121.434 -184.052)"/></g><path class="ab" d="M103.585,93.447a13.985,13.985,0,0,0-5.2,6.033" transform="translate(-97.977 -93.447)"/><path class="ab" d="M99.594,94.133a9.117,9.117,0,0,0-2.186,2.618" transform="translate(-97.408 -93.848)"/><path class="ab" d="M150.213,133.348a11.558,11.558,0,0,1-3.582,5.227" transform="translate(-126.211 -116.796)"/><path class="ab" d="M154.89,139.162a6.878,6.878,0,0,1-1.217,1.817" transform="translate(-130.332 -120.198)"/><path class="ab" d="M117.463,185.228a15.2,15.2,0,0,0-.972,5.244" transform="translate(-108.575 -147.154)"/><path class="ab" d="M114.361,188.683a7.942,7.942,0,0,0-.329,1.657" transform="translate(-107.136 -149.175)"/><path class="ab" d="M163.718,190.152a24.326,24.326,0,0,1-.037,5.134" transform="translate(-136.188 -150.035)"/><path class="ab" d="M167.115,193.476a9.621,9.621,0,0,1-.11,1.6" transform="translate(-138.134 -151.98)"/><path class="ab" d="M341.389,228.955a10.39,10.39,0,0,0,2.643,4.141" transform="translate(-240.176 -172.741)"/><path class="ab" d="M341.583,235.519a2.672,2.672,0,0,0,.718.918" transform="translate(-240.29 -176.582)"/><path class="ab" d="M381.687,197.9a4.579,4.579,0,0,1,2.1,2.091,9.462,9.462,0,0,1,.875,2.877" transform="translate(-263.757 -154.569)"/><path class="ab" d="M388.027,199.58a6.865,6.865,0,0,1,.668,1.508" transform="translate(-267.467 -155.552)"/></g></g></g></g></svg>