<svg xmlns="http://www.w3.org/2000/svg" xmlns:xlink="http://www.w3.org/1999/xlink" width="72" height="72" viewBox="0 0 72 72"><defs><style>.a{fill:#fff;stroke:#707070;}.b{clip-path:url(#a);}.c{fill:#79baff;}.d{fill:#784132;}.e{fill:#f9a58d;}.f{fill:#ed000e;}.g{fill:#905041;}.h{fill:none;stroke:#905041;stroke-miterlimit:10;stroke-width:1.283px;}.i{fill:#ffbda9;}.j{fill:#e3e7f2;}.k{fill:#b3d9ff;}.l{fill:#464646;}.m{fill:#2d2d2d;}</style><clipPath id="a"><rect class="a" width="72" height="72"/></clipPath></defs><g class="b"><path class="c" d="M10.815,61.72,36,52.156,61.185,61.72a36,36,0,1,0-50.37,0Z"/><circle class="d" cx="4.799" cy="4.799" r="4.799" transform="translate(39.046 33.592)"/><g transform="translate(10.815 35.502)"><path class="e" d="M31.013,35.5v4.759l-6.282,2.715.388,5.315L20.984,44.52a13.114,13.114,0,0,0-6.577,7.464L10.815,61.72a37.347,37.347,0,0,0,8.924,6.293l17.872-15.97L39.2,41.727,36.221,35.5Z" transform="translate(-10.815 -35.502)"/></g><path class="f" d="M36.222,50.129l-.19,0a12.5,12.5,0,0,1-11.3-7.156L20.984,44.52s4.705,11.636-1.257,23.486A35.845,35.845,0,0,0,36.221,72l5.016-10.28Z" transform="translate(0 0)"/><g transform="translate(35.778 35.502)"><path class="e" d="M40.987,35.5v4.759l6.282,2.715-.388,5.315,4.135-3.771a13.114,13.114,0,0,1,6.577,7.464l3.593,9.736a37.353,37.353,0,0,1-8.924,6.293L35.778,50.129V35.5Z" transform="translate(-35.778 -35.502)"/></g><path class="f" d="M35.778,50.129l.19,0a12.5,12.5,0,0,0,11.3-7.156l3.746,1.544a26.005,26.005,0,0,0,1.257,23.486A35.845,35.845,0,0,1,35.779,72Z" transform="translate(0 0)"/><g transform="translate(23.798 22.018)"><ellipse class="g" cx="6.306" cy="6.626" rx="6.306" ry="6.626"/><ellipse class="d" cx="6.306" cy="6.626" rx="6.306" ry="6.626" transform="translate(12.234)"/></g><path class="h"/><g transform="translate(25.69 17.914)"><path class="i" d="M36.222,17.914l5.016,10.532L36.222,38.977A10.532,10.532,0,0,1,25.69,28.446V27.5l1.655-9.59Z" transform="translate(-25.69 -17.914)"/><path class="i" d="M36.222,17.914V38.977A10.532,10.532,0,0,0,46.753,28.445V27.5l-1.374-9.59H36.222Z" transform="translate(-25.69 -17.914)"/></g><g transform="translate(32.797 32.275)"><path class="f" d="M36.222,32.275H32.8A3.425,3.425,0,0,0,36.222,35.7l1.015-1.712Z" transform="translate(-32.797 -32.275)"/><path class="f" d="M36.222,35.7a3.425,3.425,0,0,0,3.425-3.424H36.222Z" transform="translate(-32.797 -32.275)"/></g><g transform="translate(29.794 25.74)"><circle class="g" cx="1.062" cy="1.062" r="1.062"/><circle class="d" cx="1.062" cy="1.062" r="1.062" transform="translate(10.729)"/></g><g transform="translate(25.69 21.197)"><path class="g" d="M25.69,27.5l3.827-4.968h6.705V21.2H30.274L25.69,22.991Z" transform="translate(-25.69 -21.197)"/><path class="d" d="M46.753,27.5l-3.827-4.968H36.221V21.2h5.948l4.584,1.793Z" transform="translate(-25.69 -21.197)"/></g><g transform="translate(23.047 10.058)"><g transform="translate(1.862)"><path class="f" d="M36.222,10.058A11.312,11.312,0,0,0,24.909,21.37v2.153L36.222,21.2l2.652-4.169Z" transform="translate(-24.909 -10.058)"/><path class="f" d="M36.364,10.058h-.142V21.2l11.455,2.325V21.37A11.312,11.312,0,0,0,36.364,10.058Z" transform="translate(-24.909 -10.058)"/></g><g transform="translate(10.523 2.568)"><path class="j" d="M36.222,17.929l.892-2.652-.892-2.652h-.758v1.894H33.57v1.515h1.894v1.894Z" transform="translate(-33.57 -12.625)"/><path class="k" d="M36.979,14.519V12.625h-.758v5.3h.758V16.035h1.894V14.519Z" transform="translate(-33.57 -12.625)"/></g><g transform="translate(0 9.662)"><path class="l" d="M36.222,19.72c-10.411.3-13.175,4.735-13.175,4.74a1.144,1.144,0,0,0,1.683.826c2.162-1.554,6.457-2.616,11.491-2.616L37.5,21.08Z" transform="translate(-23.047 -19.72)"/><g transform="translate(13.175)"><path class="m" d="M36.222,19.72c10.411.3,13.175,4.735,13.175,4.74a1.144,1.144,0,0,1-1.683.826c-2.162-1.554-6.457-2.616-11.491-2.616Z" transform="translate(-36.222 -19.72)"/></g></g></g><path class="d" d="M41.487,50.69l.019-11.9h7.138v11.9Z" transform="translate(0)"/></g></svg>