<svg xmlns="http://www.w3.org/2000/svg" xmlns:xlink="http://www.w3.org/1999/xlink" width="272" height="270" viewBox="0 0 272 270"><defs><style>.a{fill:none;}.b{opacity:0.35;clip-path:url(#a);}.c{fill:#7a7a94;}</style><clipPath id="a"><rect class="a" width="272" height="270"/></clipPath></defs><g class="b"><g transform="translate(16106 295)"><circle class="c" cx="4" cy="4" r="4" transform="translate(-16106 -295)"/></g><g transform="translate(16129 295)"><circle class="c" cx="4" cy="4" r="4" transform="translate(-16106 -295)"/></g><g transform="translate(16152 295)"><circle class="c" cx="4" cy="4" r="4" transform="translate(-16106 -295)"/></g><g transform="translate(16175 295)"><circle class="c" cx="4" cy="4" r="4" transform="translate(-16106 -295)"/></g><g transform="translate(16198 295)"><circle class="c" cx="4" cy="4" r="4" transform="translate(-16106 -295)"/></g><g transform="translate(16221 295)"><circle class="c" cx="4" cy="4" r="4" transform="translate(-16106 -295)"/></g><g transform="translate(16244 295)"><circle class="c" cx="4" cy="4" r="4" transform="translate(-16106 -295)"/></g><g transform="translate(16267 295)"><circle class="c" cx="4" cy="4" r="4" transform="translate(-16106 -295)"/></g><g transform="translate(16290 295)"><circle class="c" cx="4" cy="4" r="4" transform="translate(-16106 -295)"/></g><g transform="translate(16313 295)"><circle class="c" cx="4" cy="4" r="4" transform="translate(-16106 -295)"/></g><g transform="translate(16336 295)"><circle class="c" cx="4" cy="4" r="4" transform="translate(-16106 -295)"/></g><g transform="translate(16359 295)"><circle class="c" cx="4" cy="4" r="4" transform="translate(-16106 -295)"/></g><g transform="translate(16106 318)"><circle class="c" cx="4" cy="4" r="4" transform="translate(-16106 -295)"/></g><g transform="translate(16129 318)"><circle class="c" cx="4" cy="4" r="4" transform="translate(-16106 -295)"/></g><g transform="translate(16152 318)"><circle class="c" cx="4" cy="4" r="4" transform="translate(-16106 -295)"/></g><g transform="translate(16175 318)"><circle class="c" cx="4" cy="4" r="4" transform="translate(-16106 -295)"/></g><g transform="translate(16198 318)"><circle class="c" cx="4" cy="4" r="4" transform="translate(-16106 -295)"/></g><g transform="translate(16221 318)"><circle class="c" cx="4" cy="4" r="4" transform="translate(-16106 -295)"/></g><g transform="translate(16244 318)"><circle class="c" cx="4" cy="4" r="4" transform="translate(-16106 -295)"/></g><g transform="translate(16267 318)"><circle class="c" cx="4" cy="4" r="4" transform="translate(-16106 -295)"/></g><g transform="translate(16290 318)"><circle class="c" cx="4" cy="4" r="4" transform="translate(-16106 -295)"/></g><g transform="translate(16313 318)"><circle class="c" cx="4" cy="4" r="4" transform="translate(-16106 -295)"/></g><g transform="translate(16336 318)"><circle class="c" cx="4" cy="4" r="4" transform="translate(-16106 -295)"/></g><g transform="translate(16359 318)"><circle class="c" cx="4" cy="4" r="4" transform="translate(-16106 -295)"/></g><g transform="translate(16106 341)"><circle class="c" cx="4" cy="4" r="4" transform="translate(-16106 -295)"/></g><g transform="translate(16129 341)"><circle class="c" cx="4" cy="4" r="4" transform="translate(-16106 -295)"/></g><g transform="translate(16152 341)"><circle class="c" cx="4" cy="4" r="4" transform="translate(-16106 -295)"/></g><g transform="translate(16175 341)"><circle class="c" cx="4" cy="4" r="4" transform="translate(-16106 -295)"/></g><g transform="translate(16198 341)"><circle class="c" cx="4" cy="4" r="4" transform="translate(-16106 -295)"/></g><g transform="translate(16221 341)"><circle class="c" cx="4" cy="4" r="4" transform="translate(-16106 -295)"/></g><g transform="translate(16244 341)"><circle class="c" cx="4" cy="4" r="4" transform="translate(-16106 -295)"/></g><g transform="translate(16267 341)"><circle class="c" cx="4" cy="4" r="4" transform="translate(-16106 -295)"/></g><g transform="translate(16290 341)"><circle class="c" cx="4" cy="4" r="4" transform="translate(-16106 -295)"/></g><g transform="translate(16313 341)"><circle class="c" cx="4" cy="4" r="4" transform="translate(-16106 -295)"/></g><g transform="translate(16336 341)"><circle class="c" cx="4" cy="4" r="4" transform="translate(-16106 -295)"/></g><g transform="translate(16359 341)"><circle class="c" cx="4" cy="4" r="4" transform="translate(-16106 -295)"/></g><g transform="translate(16106 364)"><circle class="c" cx="4" cy="4" r="4" transform="translate(-16106 -295)"/></g><g transform="translate(16129 364)"><circle class="c" cx="4" cy="4" r="4" transform="translate(-16106 -295)"/></g><g transform="translate(16152 364)"><circle class="c" cx="4" cy="4" r="4" transform="translate(-16106 -295)"/></g><g transform="translate(16175 364)"><circle class="c" cx="4" cy="4" r="4" transform="translate(-16106 -295)"/></g><g transform="translate(16198 364)"><circle class="c" cx="4" cy="4" r="4" transform="translate(-16106 -295)"/></g><g transform="translate(16221 364)"><circle class="c" cx="4" cy="4" r="4" transform="translate(-16106 -295)"/></g><g transform="translate(16244 364)"><circle class="c" cx="4" cy="4" r="4" transform="translate(-16106 -295)"/></g><g transform="translate(16267 364)"><circle class="c" cx="4" cy="4" r="4" transform="translate(-16106 -295)"/></g><g transform="translate(16290 364)"><circle class="c" cx="4" cy="4" r="4" transform="translate(-16106 -295)"/></g><g transform="translate(16313 364)"><circle class="c" cx="4" cy="4" r="4" transform="translate(-16106 -295)"/></g><g transform="translate(16336 364)"><circle class="c" cx="4" cy="4" r="4" transform="translate(-16106 -295)"/></g><g transform="translate(16359 364)"><circle class="c" cx="4" cy="4" r="4" transform="translate(-16106 -295)"/></g><g transform="translate(16106 387)"><circle class="c" cx="4" cy="4" r="4" transform="translate(-16106 -295)"/></g><g transform="translate(16129 387)"><circle class="c" cx="4" cy="4" r="4" transform="translate(-16106 -295)"/></g><g transform="translate(16152 387)"><circle class="c" cx="4" cy="4" r="4" transform="translate(-16106 -295)"/></g><g transform="translate(16175 387)"><circle class="c" cx="4" cy="4" r="4" transform="translate(-16106 -295)"/></g><g transform="translate(16198 387)"><circle class="c" cx="4" cy="4" r="4" transform="translate(-16106 -295)"/></g><g transform="translate(16221 387)"><circle class="c" cx="4" cy="4" r="4" transform="translate(-16106 -295)"/></g><g transform="translate(16244 387)"><circle class="c" cx="4" cy="4" r="4" transform="translate(-16106 -295)"/></g><g transform="translate(16267 387)"><circle class="c" cx="4" cy="4" r="4" transform="translate(-16106 -295)"/></g><g transform="translate(16290 387)"><circle class="c" cx="4" cy="4" r="4" transform="translate(-16106 -295)"/></g><g transform="translate(16313 387)"><circle class="c" cx="4" cy="4" r="4" transform="translate(-16106 -295)"/></g><g transform="translate(16336 387)"><circle class="c" cx="4" cy="4" r="4" transform="translate(-16106 -295)"/></g><g transform="translate(16359 387)"><circle class="c" cx="4" cy="4" r="4" transform="translate(-16106 -295)"/></g><g transform="translate(16106 410)"><circle class="c" cx="4" cy="4" r="4" transform="translate(-16106 -295)"/></g><g transform="translate(16129 410)"><circle class="c" cx="4" cy="4" r="4" transform="translate(-16106 -295)"/></g><g transform="translate(16152 410)"><circle class="c" cx="4" cy="4" r="4" transform="translate(-16106 -295)"/></g><g transform="translate(16175 410)"><circle class="c" cx="4" cy="4" r="4" transform="translate(-16106 -295)"/></g><g transform="translate(16198 410)"><circle class="c" cx="4" cy="4" r="4" transform="translate(-16106 -295)"/></g><g transform="translate(16221 410)"><circle class="c" cx="4" cy="4" r="4" transform="translate(-16106 -295)"/></g><g transform="translate(16244 410)"><circle class="c" cx="4" cy="4" r="4" transform="translate(-16106 -295)"/></g><g transform="translate(16267 410)"><circle class="c" cx="4" cy="4" r="4" transform="translate(-16106 -295)"/></g><g transform="translate(16290 410)"><circle class="c" cx="4" cy="4" r="4" transform="translate(-16106 -295)"/></g><g transform="translate(16313 410)"><circle class="c" cx="4" cy="4" r="4" transform="translate(-16106 -295)"/></g><g transform="translate(16336 410)"><circle class="c" cx="4" cy="4" r="4" transform="translate(-16106 -295)"/></g><g transform="translate(16359 410)"><circle class="c" cx="4" cy="4" r="4" transform="translate(-16106 -295)"/></g><g transform="translate(16106 433)"><circle class="c" cx="4" cy="4" r="4" transform="translate(-16106 -295)"/></g><g transform="translate(16129 433)"><circle class="c" cx="4" cy="4" r="4" transform="translate(-16106 -295)"/></g><g transform="translate(16152 433)"><circle class="c" cx="4" cy="4" r="4" transform="translate(-16106 -295)"/></g><g transform="translate(16175 433)"><circle class="c" cx="4" cy="4" r="4" transform="translate(-16106 -295)"/></g><g transform="translate(16198 433)"><circle class="c" cx="4" cy="4" r="4" transform="translate(-16106 -295)"/></g><g transform="translate(16221 433)"><circle class="c" cx="4" cy="4" r="4" transform="translate(-16106 -295)"/></g><g transform="translate(16244 433)"><circle class="c" cx="4" cy="4" r="4" transform="translate(-16106 -295)"/></g><g transform="translate(16267 433)"><circle class="c" cx="4" cy="4" r="4" transform="translate(-16106 -295)"/></g><g transform="translate(16290 433)"><circle class="c" cx="4" cy="4" r="4" transform="translate(-16106 -295)"/></g><g transform="translate(16313 433)"><circle class="c" cx="4" cy="4" r="4" transform="translate(-16106 -295)"/></g><g transform="translate(16336 433)"><circle class="c" cx="4" cy="4" r="4" transform="translate(-16106 -295)"/></g><g transform="translate(16359 433)"><circle class="c" cx="4" cy="4" r="4" transform="translate(-16106 -295)"/></g><g transform="translate(16106 456)"><circle class="c" cx="4" cy="4" r="4" transform="translate(-16106 -295)"/></g><g transform="translate(16129 456)"><circle class="c" cx="4" cy="4" r="4" transform="translate(-16106 -295)"/></g><g transform="translate(16152 456)"><circle class="c" cx="4" cy="4" r="4" transform="translate(-16106 -295)"/></g><g transform="translate(16175 456)"><circle class="c" cx="4" cy="4" r="4" transform="translate(-16106 -295)"/></g><g transform="translate(16198 456)"><circle class="c" cx="4" cy="4" r="4" transform="translate(-16106 -295)"/></g><g transform="translate(16221 456)"><circle class="c" cx="4" cy="4" r="4" transform="translate(-16106 -295)"/></g><g transform="translate(16244 456)"><circle class="c" cx="4" cy="4" r="4" transform="translate(-16106 -295)"/></g><g transform="translate(16267 456)"><circle class="c" cx="4" cy="4" r="4" transform="translate(-16106 -295)"/></g><g transform="translate(16290 456)"><circle class="c" cx="4" cy="4" r="4" transform="translate(-16106 -295)"/></g><g transform="translate(16313 456)"><circle class="c" cx="4" cy="4" r="4" transform="translate(-16106 -295)"/></g><g transform="translate(16336 456)"><circle class="c" cx="4" cy="4" r="4" transform="translate(-16106 -295)"/></g><g transform="translate(16359 456)"><circle class="c" cx="4" cy="4" r="4" transform="translate(-16106 -295)"/></g><g transform="translate(16106 479)"><circle class="c" cx="4" cy="4" r="4" transform="translate(-16106 -295)"/></g><g transform="translate(16129 479)"><circle class="c" cx="4" cy="4" r="4" transform="translate(-16106 -295)"/></g><g transform="translate(16152 479)"><circle class="c" cx="4" cy="4" r="4" transform="translate(-16106 -295)"/></g><g transform="translate(16175 479)"><circle class="c" cx="4" cy="4" r="4" transform="translate(-16106 -295)"/></g><g transform="translate(16198 479)"><circle class="c" cx="4" cy="4" r="4" transform="translate(-16106 -295)"/></g><g transform="translate(16221 479)"><circle class="c" cx="4" cy="4" r="4" transform="translate(-16106 -295)"/></g><g transform="translate(16244 479)"><circle class="c" cx="4" cy="4" r="4" transform="translate(-16106 -295)"/></g><g transform="translate(16267 479)"><circle class="c" cx="4" cy="4" r="4" transform="translate(-16106 -295)"/></g><g transform="translate(16290 479)"><circle class="c" cx="4" cy="4" r="4" transform="translate(-16106 -295)"/></g><g transform="translate(16313 479)"><circle class="c" cx="4" cy="4" r="4" transform="translate(-16106 -295)"/></g><g transform="translate(16336 479)"><circle class="c" cx="4" cy="4" r="4" transform="translate(-16106 -295)"/></g><g transform="translate(16359 479)"><circle class="c" cx="4" cy="4" r="4" transform="translate(-16106 -295)"/></g><g transform="translate(16106 502)"><circle class="c" cx="4" cy="4" r="4" transform="translate(-16106 -295)"/></g><g transform="translate(16129 502)"><circle class="c" cx="4" cy="4" r="4" transform="translate(-16106 -295)"/></g><g transform="translate(16152 502)"><circle class="c" cx="4" cy="4" r="4" transform="translate(-16106 -295)"/></g><g transform="translate(16175 502)"><circle class="c" cx="4" cy="4" r="4" transform="translate(-16106 -295)"/></g><g transform="translate(16198 502)"><circle class="c" cx="4" cy="4" r="4" transform="translate(-16106 -295)"/></g><g transform="translate(16221 502)"><circle class="c" cx="4" cy="4" r="4" transform="translate(-16106 -295)"/></g><g transform="translate(16244 502)"><circle class="c" cx="4" cy="4" r="4" transform="translate(-16106 -295)"/></g><g transform="translate(16267 502)"><circle class="c" cx="4" cy="4" r="4" transform="translate(-16106 -295)"/></g><g transform="translate(16290 502)"><circle class="c" cx="4" cy="4" r="4" transform="translate(-16106 -295)"/></g><g transform="translate(16313 502)"><circle class="c" cx="4" cy="4" r="4" transform="translate(-16106 -295)"/></g><g transform="translate(16336 502)"><circle class="c" cx="4" cy="4" r="4" transform="translate(-16106 -295)"/></g><g transform="translate(16359 502)"><circle class="c" cx="4" cy="4" r="4" transform="translate(-16106 -295)"/></g><g transform="translate(16106 525)"><circle class="c" cx="4" cy="4" r="4" transform="translate(-16106 -295)"/></g><g transform="translate(16129 525)"><circle class="c" cx="4" cy="4" r="4" transform="translate(-16106 -295)"/></g><g transform="translate(16152 525)"><circle class="c" cx="4" cy="4" r="4" transform="translate(-16106 -295)"/></g><g transform="translate(16175 525)"><circle class="c" cx="4" cy="4" r="4" transform="translate(-16106 -295)"/></g><g transform="translate(16198 525)"><circle class="c" cx="4" cy="4" r="4" transform="translate(-16106 -295)"/></g><g transform="translate(16221 525)"><circle class="c" cx="4" cy="4" r="4" transform="translate(-16106 -295)"/></g><g transform="translate(16244 525)"><circle class="c" cx="4" cy="4" r="4" transform="translate(-16106 -295)"/></g><g transform="translate(16267 525)"><circle class="c" cx="4" cy="4" r="4" transform="translate(-16106 -295)"/></g><g transform="translate(16290 525)"><circle class="c" cx="4" cy="4" r="4" transform="translate(-16106 -295)"/></g><g transform="translate(16313 525)"><circle class="c" cx="4" cy="4" r="4" transform="translate(-16106 -295)"/></g><g transform="translate(16336 525)"><circle class="c" cx="4" cy="4" r="4" transform="translate(-16106 -295)"/></g><g transform="translate(16359 525)"><circle class="c" cx="4" cy="4" r="4" transform="translate(-16106 -295)"/></g><g transform="translate(16106 548)"><circle class="c" cx="4" cy="4" r="4" transform="translate(-16106 -295)"/></g><g transform="translate(16129 548)"><circle class="c" cx="4" cy="4" r="4" transform="translate(-16106 -295)"/></g><g transform="translate(16152 548)"><circle class="c" cx="4" cy="4" r="4" transform="translate(-16106 -295)"/></g><g transform="translate(16175 548)"><circle class="c" cx="4" cy="4" r="4" transform="translate(-16106 -295)"/></g><g transform="translate(16198 548)"><circle class="c" cx="4" cy="4" r="4" transform="translate(-16106 -295)"/></g><g transform="translate(16221 548)"><circle class="c" cx="4" cy="4" r="4" transform="translate(-16106 -295)"/></g><g transform="translate(16244 548)"><circle class="c" cx="4" cy="4" r="4" transform="translate(-16106 -295)"/></g><g transform="translate(16267 548)"><circle class="c" cx="4" cy="4" r="4" transform="translate(-16106 -295)"/></g><g transform="translate(16290 548)"><circle class="c" cx="4" cy="4" r="4" transform="translate(-16106 -295)"/></g><g transform="translate(16313 548)"><circle class="c" cx="4" cy="4" r="4" transform="translate(-16106 -295)"/></g><g transform="translate(16336 548)"><circle class="c" cx="4" cy="4" r="4" transform="translate(-16106 -295)"/></g><g transform="translate(16359 548)"><circle class="c" cx="4" cy="4" r="4" transform="translate(-16106 -295)"/></g></g></svg>