<svg xmlns="http://www.w3.org/2000/svg" width="38" height="38" viewBox="0 0 38 38"><defs><style>.a{fill:#686868;}.b{fill:#727272;}.c{fill:#f4a93c;}.d{fill:#f6b940;}.e{fill:#f9d266;}.f{fill:#4d8c28;}.g{fill:#d5883e;}.h{fill:#559b2d;}.i{fill:#6bc13b;}.j{fill:#474747;}</style></defs><g transform="translate(-2 -2)"><rect class="a" width="23" height="38" rx="4" transform="translate(2 2)"/><rect class="b" width="21" height="38" rx="4" transform="translate(2 2)"/><path class="c" d="M48.067,26.533H26.533A2.533,2.533,0,0,1,24,24V39.833a2.533,2.533,0,0,0,2.533,2.533H46.8A1.267,1.267,0,0,0,48.067,41.1Z" transform="translate(-8.067 -8.067)"/><path class="d" d="M46.279,26.533H26.533A2.533,2.533,0,0,1,24,24V39.833H44.379a1.9,1.9,0,0,0,1.9-1.9Z" transform="translate(-8.067 -8.067)"/><path class="e" d="M26.533,20H46.8a1.267,1.267,0,0,1,1.267,1.267v3.8H26.533a2.533,2.533,0,0,1,0-5.067Z" transform="translate(-8.067 -6.6)"/><path class="f" d="M32.475,21.237l3.982-6.773L33.571,9.556,25.928,14.05l4.226,7.187Z" transform="translate(-8.774 -2.771)"/><path class="g" d="M58.333,36H53.9A1.9,1.9,0,0,0,52,37.9v1.267a1.9,1.9,0,0,0,1.9,1.9h4.433" transform="translate(-18.333 -12.467)"/><path class="e" d="M56.267,40.533a1.267,1.267,0,1,1,1.267-1.267A1.267,1.267,0,0,1,56.267,40.533Z" transform="translate(-19.433 -13.2)"/><path class="h" d="M36.265,21.237,43.133,9.556l7.643,4.494-4.226,7.187" transform="translate(-12.564 -2.771)"/><path class="i" d="M40.9,23.431l4.508-7.668.867-.225,2.184,1.284.225.866-3.376,5.742" transform="translate(-14.265 -4.964)"/><path class="i" d="M37.181,19.157l-2-3.394-.867-.225-2.184,1.284-.225.866L34.977,22.9" transform="translate(-10.967 -4.964)"/><g transform="translate(10.233 2)"><path class="j" d="M15,2V3.267a1.267,1.267,0,0,0,1.267,1.267h3.8a1.267,1.267,0,0,0,1.267-1.267V2" transform="translate(-15 -2)"/><path class="j" d="M15,57h6.333v1.267H15Z" transform="translate(-15 -22.167)"/></g></g></svg>